<svg xmlns="http://www.w3.org/2000/svg" xmlns:xlink="http://www.w3.org/1999/xlink" xmlns:lucid="lucid" width="2500" height="1080"><g transform="translate(460 -1400)" lucid:page-tab-id="0_0"><path d="M-440 1546a6 6 0 0 1 6-6H14a6 6 0 0 1 6 6v908a6 6 0 0 1-6 6h-448a6 6 0 0 1-6-6z" stroke="#8ca88e" stroke-width="3" fill="#ffd9d9"/><path d="M1560 1546a6 6 0 0 1 6-6h448a6 6 0 0 1 6 6v908a6 6 0 0 1-6 6h-448a6 6 0 0 1-6-6z" stroke="#8ca88e" stroke-width="3" fill="#e3fae3"/><path d="M1060 1546a6 6 0 0 1 6-6h448a6 6 0 0 1 6 6v908a6 6 0 0 1-6 6h-448a6 6 0 0 1-6-6z" stroke="#8ca88e" stroke-width="3" fill="#dfe3e8"/><path d="M560 1546a6 6 0 0 1 6-6h448a6 6 0 0 1 6 6v908a6 6 0 0 1-6 6H566a6 6 0 0 1-6-6z" stroke="#8ca88e" stroke-width="3" fill="#edf5ff"/><path d="M60 1546a6 6 0 0 1 6-6h448a6 6 0 0 1 6 6v908a6 6 0 0 1-6 6H66a6 6 0 0 1-6-6z" stroke="#8ca88e" stroke-width="3" fill="#fff3d9"/><path d="M20 1546a6 6 0 0 1 6-6h228a6 6 0 0 1 6 6v48a6 6 0 0 1-6 6H26a6 6 0 0 1-6-6z" fill="none"/><use xlink:href="#a" transform="matrix(1,0,0,1,20,1540) translate(67.75 33.6)"/><use xlink:href="#b" transform="matrix(1,0,0,1,20,1540) translate(136.25 33.6)"/><path d="M340 1470c0 27.6-22.4 50-50 50s-50-22.4-50-50 22.4-50 50-50 50 22.4 50 50z" stroke="#5e5e5e" stroke-width="3"/><path d="M368 1620c28.72 0 52 17.9 52 40s-23.28 40-52 40H212c-28.72 0-52-17.9-52-40s23.28-40 52-40z" stroke="#5e5e5e" stroke-width="3" fill="#fff"/><use xlink:href="#c" transform="matrix(1,0,0,1,165,1625) translate(45.62999999999999 27.525)"/><use xlink:href="#d" transform="matrix(1,0,0,1,165,1625) translate(112.53 27.525)"/><use xlink:href="#e" transform="matrix(1,0,0,1,165,1625) translate(81.58 49.125)"/><path d="M290 1524v69.64" stroke="#5e5e5e" stroke-width="5" fill="none"/><path d="M290 1521.5l2.5-.1v2.66h-5v-2.68z" stroke="#5e5e5e" stroke-width=".05" fill="#5e5e5e"/><path d="M290 1610.4l-4.63-14.26h9.26z" stroke="#5e5e5e" stroke-width="5" fill="#5e5e5e"/><path d="M560 1546a6 6 0 0 1 6-6h228a6 6 0 0 1 6 6v48a6 6 0 0 1-6 6H566a6 6 0 0 1-6-6z" fill="none"/><use xlink:href="#f" transform="matrix(1,0,0,1,560,1540) translate(23.87499999999997 33.6)"/><use xlink:href="#g" transform="matrix(1,0,0,1,560,1540) translate(77.72499999999998 33.6)"/><path d="M1020 1546a6 6 0 0 1 6-6h228a6 6 0 0 1 6 6v48a6 6 0 0 1-6 6h-228a6 6 0 0 1-6-6z" fill="none"/><use xlink:href="#h" transform="matrix(1,0,0,1,1020,1540) translate(70.75 33.6)"/><use xlink:href="#i" transform="matrix(1,0,0,1,1020,1540) translate(140.3 33.6)"/><path d="M1560 1546a6 6 0 0 1 6-6h331.85a6 6 0 0 1 6 6v48a6 6 0 0 1-6 6H1566a6 6 0 0 1-6-6z" fill="none"/><use xlink:href="#j" transform="matrix(1,0,0,1,1560,1540) translate(31.62499999999997 33.6)"/><use xlink:href="#g" transform="matrix(1,0,0,1,1560,1540) translate(173.975 33.6)"/><path d="M868 1640c28.72 0 52 17.9 52 40s-23.28 40-52 40H712c-28.72 0-52-17.9-52-40s23.28-40 52-40z" stroke="#5e5e5e" stroke-width="3" fill="#fff"/><use xlink:href="#k" transform="matrix(1,0,0,1,665,1645) translate(24.349999999999994 38.4625)"/><use xlink:href="#l" transform="matrix(1,0,0,1,665,1645) translate(112.85 38.4625)"/><use xlink:href="#m" transform="matrix(1,0,0,1,665,1645) translate(128.85 38.4625)"/><use xlink:href="#n" transform="matrix(1,0,0,1,665,1645) translate(175.75 38.4625)"/><path d="M-440 1546a6 6 0 0 1 6-6h228a6 6 0 0 1 6 6v48a6 6 0 0 1-6 6h-228a6 6 0 0 1-6-6z" fill="none"/><use xlink:href="#o" transform="matrix(1,0,0,1,-440,1540) translate(16.424999999999983 33.6)"/><use xlink:href="#p" transform="matrix(1,0,0,1,-440,1540) translate(86.725 33.6)"/><use xlink:href="#q" transform="matrix(1,0,0,1,-440,1540) translate(145.025 33.6)"/><path d="M424 1660.2l209.73 17.7" stroke="#5e5e5e" stroke-width="5" fill="none"/><path d="M424.26 1657.72l-.4 5-2.48-.22.12-2.48-.02-1.1-.1-1.44z" stroke="#5e5e5e" stroke-width=".05" fill="#5e5e5e"/><path d="M650.44 1679.32l-14.6 3.42.77-9.24z" stroke="#5e5e5e" stroke-width="5" fill="#5e5e5e"/><path d="M868 1760c28.72 0 52 22.4 52 50s-23.28 50-52 50H712c-28.72 0-52-22.4-52-50s23.28-50 52-50z" stroke="#5e5e5e" stroke-width="3" fill="#fff"/><use xlink:href="#c" transform="matrix(1,0,0,1,665,1765) translate(24.279999999999998 17.2125)"/><use xlink:href="#l" transform="matrix(1,0,0,1,665,1765) translate(91.18 17.2125)"/><use xlink:href="#r" transform="matrix(1,0,0,1,665,1765) translate(107.18 17.2125)"/><use xlink:href="#s" transform="matrix(1,0,0,1,665,1765) translate(201.13 17.2125)"/><use xlink:href="#t" transform="matrix(1,0,0,1,665,1765) translate(19.624999999999986 38.8125)"/><use xlink:href="#r" transform="matrix(1,0,0,1,665,1765) translate(60.52499999999999 38.8125)"/><use xlink:href="#u" transform="matrix(1,0,0,1,665,1765) translate(154.47500000000002 38.8125)"/><use xlink:href="#v" transform="matrix(1,0,0,1,665,1765) translate(45.474999999999994 60.4125)"/><use xlink:href="#w" transform="matrix(1,0,0,1,665,1765) translate(96.32499999999999 60.4125)"/><use xlink:href="#x" transform="matrix(1,0,0,1,665,1765) translate(151.225 60.4125)"/><use xlink:href="#y" transform="matrix(1,0,0,1,665,1765) translate(62.83 82.01250000000002)"/><path d="M790 1724v9.64" stroke="#5e5e5e" stroke-width="5" fill="none"/><path d="M792.5 1724.06h-5v-2.56h5z" stroke="#5e5e5e" stroke-width=".05" fill="#5e5e5e"/><path d="M790 1750.4l-4.63-14.26h9.26z" stroke="#5e5e5e" stroke-width="5" fill="#5e5e5e"/><path d="M1368 1800c28.72 0 52 17.9 52 40s-23.28 40-52 40h-156c-28.72 0-52-17.9-52-40s23.28-40 52-40z" stroke="#5e5e5e" stroke-width="3" fill="#fff"/><use xlink:href="#z" transform="matrix(1,0,0,1,1165,1805) translate(22.15500000000001 27.525)"/><use xlink:href="#t" transform="matrix(1,0,0,1,1165,1805) translate(75.055 27.525)"/><use xlink:href="#r" transform="matrix(1,0,0,1,1165,1805) translate(115.95500000000001 27.525)"/><use xlink:href="#A" transform="matrix(1,0,0,1,1165,1805) translate(209.905 27.525)"/><use xlink:href="#t" transform="matrix(1,0,0,1,1165,1805) translate(72.605 49.125)"/><use xlink:href="#B" transform="matrix(1,0,0,1,1165,1805) translate(113.505 49.125)"/><path d="M923.98 1810.3l209.86 26.58" stroke="#5e5e5e" stroke-width="5" fill="none"/><path d="M924.36 1807.84l-.63 4.96-2.35-.3.12-2.48-.03-1.67-.07-.88z" stroke="#5e5e5e" stroke-width=".05" fill="#5e5e5e"/><path d="M1150.47 1838.98l-14.73 2.8 1.16-9.2z" stroke="#5e5e5e" stroke-width="5" fill="#5e5e5e"/><path d="M1868 1840c28.72 0 52 17.9 52 40s-23.28 40-52 40h-156c-28.72 0-52-17.9-52-40s23.28-40 52-40z" stroke="#5e5e5e" stroke-width="3" fill="#fff"/><use xlink:href="#C" transform="matrix(1,0,0,1,1665,1845) translate(29.104999999999997 27.525)"/><use xlink:href="#t" transform="matrix(1,0,0,1,1665,1845) translate(91.055 27.525)"/><use xlink:href="#D" transform="matrix(1,0,0,1,1665,1845) translate(131.955 27.525)"/><use xlink:href="#E" transform="matrix(1,0,0,1,1665,1845) translate(43.679999999999986 49.125)"/><use xlink:href="#t" transform="matrix(1,0,0,1,1665,1845) translate(101.53 49.125)"/><use xlink:href="#B" transform="matrix(1,0,0,1,1665,1845) translate(142.43 49.125)"/><path d="M1446 1844.14l210.04 35.44" stroke="#5e5e5e" stroke-width="5" fill="none"/><path d="M1429.48 1841.35l14.84-2.2-1.55 9.14z" stroke="#5e5e5e" stroke-width="5" fill="#5e5e5e"/><path d="M1658.62 1877.48l-.12 2.5.02 1.1.12 1.48-3.1-.52.85-4.93z" stroke="#5e5e5e" stroke-width=".05" fill="#5e5e5e"/><path d="M1868 1980c28.72 0 52 21.58 52 48.2 0 26.62-23.28 48.2-52 48.2h-156c-28.72 0-52-21.58-52-48.2 0-26.62 23.28-48.2 52-48.2z" stroke="#5e5e5e" stroke-width="3" fill="#fff"/><use xlink:href="#c" transform="matrix(1,0,0,1,1665,1985) translate(21.354999999999986 17.11875)"/><use xlink:href="#l" transform="matrix(1,0,0,1,1665,1985) translate(88.255 17.11875)"/><use xlink:href="#F" transform="matrix(1,0,0,1,1665,1985) translate(104.255 17.11875)"/><use xlink:href="#p" transform="matrix(1,0,0,1,1665,1985) translate(42.44999999999999 38.71875)"/><use xlink:href="#v" transform="matrix(1,0,0,1,1665,1985) translate(100.75 38.71875)"/><use xlink:href="#l" transform="matrix(1,0,0,1,1665,1985) translate(151.6 38.71875)"/><use xlink:href="#G" transform="matrix(1,0,0,1,1665,1985) translate(167.6 38.71875)"/><use xlink:href="#H" transform="matrix(1,0,0,1,1665,1985) translate(61.304999999999986 60.31875)"/><use xlink:href="#I" transform="matrix(1,0,0,1,1665,1985) translate(177.70499999999998 60.31875)"/><use xlink:href="#J" transform="matrix(1,0,0,1,1665,1985) translate(34.35499999999999 81.91875000000002)"/><use xlink:href="#K" transform="matrix(1,0,0,1,1665,1985) translate(163.755 81.91875000000002)"/><path d="M1790 1924v29.64" stroke="#5e5e5e" stroke-width="5" fill="none"/><path d="M1792.5 1924.06h-5v-2.56h5z" stroke="#5e5e5e" stroke-width=".05" fill="#5e5e5e"/><path d="M1790 1970.4l-4.63-14.26h9.27z" stroke="#5e5e5e" stroke-width="5" fill="#5e5e5e"/><path d="M-132 2040c28.72 0 52 17.9 52 40s-23.28 40-52 40h-156c-28.72 0-52-17.9-52-40s23.28-40 52-40z" stroke="#5e5e5e" stroke-width="3" fill="#fff"/><use xlink:href="#L" transform="matrix(1,0,0,1,-335,2045) translate(6.204999999999993 27.525)"/><use xlink:href="#M" transform="matrix(1,0,0,1,-335,2045) translate(61.105 27.525)"/><use xlink:href="#N" transform="matrix(1,0,0,1,-335,2045) translate(131.005 27.525)"/><use xlink:href="#t" transform="matrix(1,0,0,1,-335,2045) translate(162.95499999999998 27.525)"/><use xlink:href="#G" transform="matrix(1,0,0,1,-335,2045) translate(203.855 27.525)"/><use xlink:href="#O" transform="matrix(1,0,0,1,-335,2045) translate(66.10499999999999 49.125)"/><use xlink:href="#t" transform="matrix(1,0,0,1,-335,2045) translate(89.05499999999999 49.125)"/><use xlink:href="#P" transform="matrix(1,0,0,1,-335,2045) translate(129.955 49.125)"/><path d="M1656 2028.28l-1709.65 50.98" stroke="#5e5e5e" stroke-width="5" fill="none"/><path d="M1658.5 2028.18l.03 1.56.07.96-2.6.08-.14-5 2.76-.1z" stroke="#5e5e5e" stroke-width=".05" fill="#5e5e5e"/><path d="M-70.4 2079.76l14.1-5.06.28 9.27z" stroke="#5e5e5e" stroke-width="5" fill="#5e5e5e"/><path d="M236 1470.12l-37.05 1.7-34.36 3.02-30.17 3.94-26.7 4.63-23.88 5.2-21.48 5.6-19.47 5.97-17.76 6.27-16.29 6.53-15.02 6.77-13.92 7-12.96 7.2-12.13 7.4-11.4 7.65-10.73 7.87-10.16 8.13-9.63 8.4-9.18 8.7-8.77 9.03-8.4 9.4-8.04 9.82-7.75 10.3-7.44 10.8-7.18 11.45-6.93 12.13-6.7 12.96-6.47 13.9-6.23 15-6 16.38-5.74 17.98-5.48 20-5.17 22.56-4.8 25.95-4.38 30.7-3.8 38.06-2.97 52.27-1.14 92.85" stroke="#5e5e5e" stroke-width="5" stroke-linejoin="round" fill="none"/><path d="M238.5 1470l.1 2.5-2.56.12-.23-5 2.82-.13z" stroke="#5e5e5e" stroke-width=".05" fill="#5e5e5e"/><path d="M-209.9 2030.4l-4.46-14.3 9.27.1z" stroke="#5e5e5e" stroke-width="5" fill="#5e5e5e"/><path d="M368 2120c28.72 0 52 17.9 52 40s-23.28 40-52 40H212c-28.72 0-52-17.9-52-40s23.28-40 52-40z" stroke="#5e5e5e" stroke-width="3" fill="#fff"/><g><use xlink:href="#Q" transform="matrix(1,0,0,1,165,2125) translate(25.704999999999995 16.5875)"/><use xlink:href="#R" transform="matrix(1,0,0,1,165,2125) translate(80.605 16.5875)"/><use xlink:href="#S" transform="matrix(1,0,0,1,165,2125) translate(102.605 16.5875)"/><use xlink:href="#T" transform="matrix(1,0,0,1,165,2125) translate(50.125 38.1875)"/><use xlink:href="#U" transform="matrix(1,0,0,1,165,2125) translate(79.725 38.1875)"/><use xlink:href="#V" transform="matrix(1,0,0,1,165,2125) translate(120.625 38.1875)"/><use xlink:href="#W" transform="matrix(1,0,0,1,165,2125) translate(16.55499999999999 59.7875)"/><use xlink:href="#X" transform="matrix(1,0,0,1,165,2125) translate(140.655 59.7875)"/></g><path d="M-207.5 2121.76l341.28 35.66" stroke="#5e5e5e" stroke-width="5" fill="none"/><path d="M-207.7 2124.25l-5.54-.57.22-2.18h5.6z" stroke="#5e5e5e" stroke-width=".05" fill="#5e5e5e"/><path d="M150.45 2159.16l-14.67 3.13.97-9.23z" stroke="#5e5e5e" stroke-width="5" fill="#5e5e5e"/><path d="M868 2180c28.72 0 52 17.9 52 40s-23.28 40-52 40H712c-28.72 0-52-17.9-52-40s23.28-40 52-40z" stroke="#5e5e5e" stroke-width="3" fill="#fff"/><g><use xlink:href="#Y" transform="matrix(1,0,0,1,665,2185) translate(51.80499999999999 16.5875)"/><use xlink:href="#Z" transform="matrix(1,0,0,1,665,2185) translate(120.30499999999999 16.5875)"/><use xlink:href="#aa" transform="matrix(1,0,0,1,665,2185) translate(187.205 16.5875)"/><use xlink:href="#W" transform="matrix(1,0,0,1,665,2185) translate(4.8999999999999915 38.1875)"/><use xlink:href="#ab" transform="matrix(1,0,0,1,665,2185) translate(129 38.1875)"/><use xlink:href="#ac" transform="matrix(1,0,0,1,665,2185) translate(220.5 38.1875)"/><use xlink:href="#U" transform="matrix(1,0,0,1,665,2185) translate(63.129999999999995 59.7875)"/><use xlink:href="#ad" transform="matrix(1,0,0,1,665,2185) translate(104.03 59.7875)"/><use xlink:href="#ae" transform="matrix(1,0,0,1,665,2185) translate(157.88 59.7875)"/></g><path d="M292.5 2201.63l341.17 17.12" stroke="#5e5e5e" stroke-width="5" fill="none"/><path d="M292.44 2204.13l-5.56-.28.12-2.35h5.57z" stroke="#5e5e5e" stroke-width=".05" fill="#5e5e5e"/><path d="M650.42 2219.6l-14.48 3.9.46-9.25z" stroke="#5e5e5e" stroke-width="5" fill="#5e5e5e"/><path d="M868 2331.8c28.72 0 52 21.58 52 48.2 0 26.62-23.28 48.2-52 48.2H712c-28.72 0-52-21.58-52-48.2 0-26.62 23.28-48.2 52-48.2z" stroke="#5e5e5e" stroke-width="3" fill="#fff"/><g><use xlink:href="#af" transform="matrix(1,0,0,1,665,2336.8) translate(19.67999999999999 17.11875)"/><use xlink:href="#ag" transform="matrix(1,0,0,1,665,2336.8) translate(73.53 17.11875)"/><use xlink:href="#ah" transform="matrix(1,0,0,1,665,2336.8) translate(107.53 17.11875)"/><use xlink:href="#ai" transform="matrix(1,0,0,1,665,2336.8) translate(194.43 17.11875)"/><use xlink:href="#aj" transform="matrix(1,0,0,1,665,2336.8) translate(13.399999999999977 38.71875)"/><use xlink:href="#ak" transform="matrix(1,0,0,1,665,2336.8) translate(110.85 38.71875)"/><use xlink:href="#al" transform="matrix(1,0,0,1,665,2336.8) translate(38.12999999999999 60.31875)"/><use xlink:href="#am" transform="matrix(1,0,0,1,665,2336.8) translate(81.03 60.31875)"/><use xlink:href="#an" transform="matrix(1,0,0,1,665,2336.8) translate(132.98000000000002 60.31875)"/><use xlink:href="#ao" transform="matrix(1,0,0,1,665,2336.8) translate(187.88 60.31875)"/><use xlink:href="#ap" transform="matrix(1,0,0,1,665,2336.8) translate(83.58 81.91875000000002)"/></g><path d="M790 2264v41.44" stroke="#5e5e5e" stroke-width="5" fill="none"/><path d="M792.5 2264.06h-5v-2.56h5z" stroke="#5e5e5e" stroke-width=".05" fill="#5e5e5e"/><path d="M790 2322.2l-4.63-14.26h9.26z" stroke="#5e5e5e" stroke-width="5" fill="#5e5e5e"/><path d="M280 1540h80v60h-80z" fill="none"/><g><use xlink:href="#aq" transform="matrix(1,0,0,1,280,1540) translate(34.382716049382715 34.044444444444444)"/></g><path d="M500 1620h80v60h-80z" fill="none"/><g><use xlink:href="#ar" transform="matrix(1,0,0,1,500,1620) translate(34.382716049382715 34.044444444444444)"/></g><path d="M780 1720h80v40h-80z" fill="none"/><g><use xlink:href="#as" transform="matrix(1,0,0,1,780,1720) translate(34.382716049382715 24.044444444444444)"/></g><path d="M1000 1780h80v60h-80z" fill="none"/><g><use xlink:href="#at" transform="matrix(1,0,0,1,1000,1780) translate(34.382716049382715 34.044444444444444)"/></g><path d="M1540 1810h80v60h-80z" fill="none"/><g><use xlink:href="#au" transform="matrix(1,0,0,1,1540,1810) translate(34.382716049382715 34.044444444444444)"/></g><path d="M1780 1920h80v60h-80z" fill="none"/><g><use xlink:href="#av" transform="matrix(1,0,0,1,1780,1920) translate(34.382716049382715 34.044444444444444)"/></g><path d="M780 2000h80v60h-80z" fill="none"/><g><use xlink:href="#aw" transform="matrix(1,0,0,1,780,2000) translate(34.382716049382715 34.044444444444444)"/></g><path d="M-176.2 1666h80v60h-80z" fill="none"/><g><use xlink:href="#ax" transform="matrix(1,0,0,1,-176.19947506561653,1666) translate(34.382716049382715 34.044444444444444)"/></g><path d="M-80 2130H0v60h-80z" fill="none"/><g><use xlink:href="#ay" transform="matrix(1,0,0,1,-80,2130) translate(34.382716049382715 34.044444444444444)"/></g><path d="M422.47 2208.67h80v60h-80z" fill="none"/><g><use xlink:href="#az" transform="matrix(1,0,0,1,422.4671916010502,2208.666666666667) translate(28.765432098765434 34.044444444444444)"/></g><path d="M780 2260h80v60h-80z" fill="none"/><g><use xlink:href="#aA" transform="matrix(1,0,0,1,780,2260) translate(29.32716049382716 34.044444444444444)"/></g><defs><path fill="#333" d="M212-179c-10-28-35-45-73-45-59 0-87 40-87 99 0 60 29 101 89 101 43 0 62-24 78-52l27 14C228-24 195 4 139 4 59 4 22-46 18-125c-6-104 99-153 187-111 19 9 31 26 39 46" id="aB"/><path fill="#333" d="M30 0v-248h33v221h125V0H30" id="aC"/><path fill="#333" d="M33 0v-248h34V0H33" id="aD"/><path fill="#333" d="M30 0v-248h187v28H63v79h144v27H63v87h162V0H30" id="aE"/><path fill="#333" d="M190 0L58-211 59 0H30v-248h39L202-35l-2-213h31V0h-41" id="aF"/><path fill="#333" d="M127-220V0H93v-220H8v-28h204v28h-85" id="aG"/><g id="a"><use transform="matrix(0.05,0,0,0.05,0,0)" xlink:href="#aB"/><use transform="matrix(0.05,0,0,0.05,12.950000000000001,0)" xlink:href="#aC"/><use transform="matrix(0.05,0,0,0.05,22.950000000000003,0)" xlink:href="#aD"/><use transform="matrix(0.05,0,0,0.05,27.950000000000003,0)" xlink:href="#aE"/><use transform="matrix(0.05,0,0,0.05,39.95,0)" xlink:href="#aF"/><use transform="matrix(0.05,0,0,0.05,52.900000000000006,0)" xlink:href="#aG"/></g><path fill="#333" d="M205 0l-28-72H64L36 0H1l101-248h38L239 0h-34zm-38-99l-47-123c-12 45-31 82-46 123h93" id="aH"/><path fill="#333" d="M30-248c87 1 191-15 191 75 0 78-77 80-158 76V0H30v-248zm33 125c57 0 124 11 124-50 0-59-68-47-124-48v98" id="aI"/><g id="b"><use transform="matrix(0.05,0,0,0.05,0,0)" xlink:href="#aH"/><use transform="matrix(0.05,0,0,0.05,12,0)" xlink:href="#aI"/><use transform="matrix(0.05,0,0,0.05,24,0)" xlink:href="#aI"/></g><path fill="#333" d="M185-189c-5-48-123-54-124 2 14 75 158 14 163 119 3 78-121 87-175 55-17-10-28-26-33-46l33-7c5 56 141 63 141-1 0-78-155-14-162-118-5-82 145-84 179-34 5 7 8 16 11 25" id="aJ"/><path fill="#333" d="M30-248c118-7 216 8 213 122C240-48 200 0 122 0H30v-248zM63-27c89 8 146-16 146-99s-60-101-146-95v194" id="aK"/><g id="c"><use transform="matrix(0.05,0,0,0.05,0,0)" xlink:href="#aJ"/><use transform="matrix(0.05,0,0,0.05,12,0)" xlink:href="#aE"/><use transform="matrix(0.05,0,0,0.05,24,0)" xlink:href="#aF"/><use transform="matrix(0.05,0,0,0.05,36.95,0)" xlink:href="#aK"/><use transform="matrix(0.05,0,0,0.05,49.900000000000006,0)" xlink:href="#aJ"/></g><path fill="#333" d="M233-177c-1 41-23 64-60 70L243 0h-38l-65-103H63V0H30v-248c88 3 205-21 203 71zM63-129c60-2 137 13 137-47 0-61-80-42-137-45v92" id="aL"/><path fill="#333" d="M143 4C61 4 22-44 18-125c-5-107 100-154 193-111 17 8 29 25 37 43l-32 9c-13-25-37-40-76-40-61 0-88 39-88 99 0 61 29 100 91 101 35 0 62-11 79-27v-45h-74v-28h105v86C228-13 192 4 143 4" id="aM"/><g id="d"><use transform="matrix(0.05,0,0,0.05,0,0)" xlink:href="#aL"/><use transform="matrix(0.05,0,0,0.05,12.950000000000001,0)" xlink:href="#aE"/><use transform="matrix(0.05,0,0,0.05,24.950000000000003,0)" xlink:href="#aM"/><use transform="matrix(0.05,0,0,0.05,38.95,0)" xlink:href="#aD"/><use transform="matrix(0.05,0,0,0.05,43.95,0)" xlink:href="#aJ"/><use transform="matrix(0.05,0,0,0.05,55.95,0)" xlink:href="#aG"/><use transform="matrix(0.05,0,0,0.05,66.9,0)" xlink:href="#aE"/><use transform="matrix(0.05,0,0,0.05,78.9,0)" xlink:href="#aL"/></g><path fill="#333" d="M140-251c81 0 123 46 123 126C263-53 228-8 163 1c7 30 30 48 69 40v23c-55 16-95-15-103-61C56-3 17-48 17-125c0-80 42-126 123-126zm0 227c63 0 89-41 89-101s-29-99-89-99c-61 0-89 39-89 99S79-25 140-24" id="aN"/><path fill="#333" d="M232-93c-1 65-40 97-104 97C67 4 28-28 28-90v-158h33c8 89-33 224 67 224 102 0 64-133 71-224h33v155" id="aO"/><g id="e"><use transform="matrix(0.05,0,0,0.05,0,0)" xlink:href="#aL"/><use transform="matrix(0.05,0,0,0.05,12.950000000000001,0)" xlink:href="#aE"/><use transform="matrix(0.05,0,0,0.05,24.950000000000003,0)" xlink:href="#aN"/><use transform="matrix(0.05,0,0,0.05,38.95,0)" xlink:href="#aO"/><use transform="matrix(0.05,0,0,0.05,51.900000000000006,0)" xlink:href="#aE"/><use transform="matrix(0.05,0,0,0.05,63.900000000000006,0)" xlink:href="#aJ"/><use transform="matrix(0.05,0,0,0.05,75.9,0)" xlink:href="#aG"/></g><path fill="#333" d="M197 0v-115H63V0H30v-248h33v105h134v-105h34V0h-34" id="aP"/><g id="f"><use transform="matrix(0.05,0,0,0.05,0,0)" xlink:href="#aH"/><use transform="matrix(0.05,0,0,0.05,12,0)" xlink:href="#aO"/><use transform="matrix(0.05,0,0,0.05,24.950000000000003,0)" xlink:href="#aG"/><use transform="matrix(0.05,0,0,0.05,35.900000000000006,0)" xlink:href="#aP"/></g><path fill="#333" d="M240 0l2-218c-23 76-54 145-80 218h-23L58-218 59 0H30v-248h44l77 211c21-75 51-140 76-211h43V0h-30" id="aQ"/><path fill="#333" d="M140-251c81 0 123 46 123 126C263-46 219 4 140 4 59 4 17-45 17-125s42-126 123-126zm0 227c63 0 89-41 89-101s-29-99-89-99c-61 0-89 39-89 99S79-25 140-24" id="aR"/><path fill="#333" d="M137 0h-34L2-248h35l83 218 83-218h36" id="aS"/><g id="g"><use transform="matrix(0.05,0,0,0.05,0,0)" xlink:href="#aQ"/><use transform="matrix(0.05,0,0,0.05,14.950000000000001,0)" xlink:href="#aD"/><use transform="matrix(0.05,0,0,0.05,19.950000000000003,0)" xlink:href="#aB"/><use transform="matrix(0.05,0,0,0.05,32.900000000000006,0)" xlink:href="#aL"/><use transform="matrix(0.05,0,0,0.05,45.85000000000001,0)" xlink:href="#aR"/><use transform="matrix(0.05,0,0,0.05,59.85,0)" xlink:href="#aJ"/><use transform="matrix(0.05,0,0,0.05,71.85000000000001,0)" xlink:href="#aE"/><use transform="matrix(0.05,0,0,0.05,83.85000000000001,0)" xlink:href="#aL"/><use transform="matrix(0.05,0,0,0.05,96.45000000000002,0)" xlink:href="#aS"/><use transform="matrix(0.05,0,0,0.05,108.45,0)" xlink:href="#aD"/><use transform="matrix(0.05,0,0,0.05,113.45,0)" xlink:href="#aB"/><use transform="matrix(0.05,0,0,0.05,126.40000000000003,0)" xlink:href="#aE"/></g><path fill="#333" d="M160-131c35 5 61 23 61 61C221 17 115-2 30 0v-248c76 3 177-17 177 60 0 33-19 50-47 57zm-97-11c50-1 110 9 110-42 0-47-63-36-110-37v79zm0 115c55-2 124 14 124-45 0-56-70-42-124-44v89" id="aT"/><g id="h"><use transform="matrix(0.05,0,0,0.05,0,0)" xlink:href="#aL"/><use transform="matrix(0.05,0,0,0.05,12.950000000000001,0)" xlink:href="#aH"/><use transform="matrix(0.05,0,0,0.05,24.950000000000003,0)" xlink:href="#aT"/><use transform="matrix(0.05,0,0,0.05,36.95,0)" xlink:href="#aT"/><use transform="matrix(0.05,0,0,0.05,48.95,0)" xlink:href="#aD"/><use transform="matrix(0.05,0,0,0.05,53.95,0)" xlink:href="#aG"/></g><g id="i"><use transform="matrix(0.05,0,0,0.05,0,0)" xlink:href="#aQ"/><use transform="matrix(0.05,0,0,0.05,14.950000000000001,0)" xlink:href="#aN"/></g><path fill="#333" d="M63-220v92h138v28H63V0H30v-248h175v28H63" id="aU"/><g id="j"><use transform="matrix(0.05,0,0,0.05,0,0)" xlink:href="#aF"/><use transform="matrix(0.05,0,0,0.05,12.950000000000001,0)" xlink:href="#aR"/><use transform="matrix(0.05,0,0,0.05,26.950000000000003,0)" xlink:href="#aG"/><use transform="matrix(0.05,0,0,0.05,37.900000000000006,0)" xlink:href="#aD"/><use transform="matrix(0.05,0,0,0.05,42.900000000000006,0)" xlink:href="#aU"/><use transform="matrix(0.05,0,0,0.05,53.85,0)" xlink:href="#aD"/><use transform="matrix(0.05,0,0,0.05,58.85,0)" xlink:href="#aB"/><use transform="matrix(0.05,0,0,0.05,71.80000000000001,0)" xlink:href="#aH"/><use transform="matrix(0.05,0,0,0.05,82.45000000000002,0)" xlink:href="#aG"/><use transform="matrix(0.05,0,0,0.05,93.40000000000002,0)" xlink:href="#aD"/><use transform="matrix(0.05,0,0,0.05,98.40000000000002,0)" xlink:href="#aR"/><use transform="matrix(0.05,0,0,0.05,112.40000000000003,0)" xlink:href="#aF"/><use transform="matrix(0.05,0,0,0.05,125.35000000000002,0)" xlink:href="#aJ"/></g><g id="k"><use transform="matrix(0.05,0,0,0.05,0,0)" xlink:href="#aB"/><use transform="matrix(0.05,0,0,0.05,12.950000000000001,0)" xlink:href="#aL"/><use transform="matrix(0.05,0,0,0.05,25.900000000000002,0)" xlink:href="#aE"/><use transform="matrix(0.05,0,0,0.05,37.900000000000006,0)" xlink:href="#aH"/><use transform="matrix(0.05,0,0,0.05,48.550000000000004,0)" xlink:href="#aG"/><use transform="matrix(0.05,0,0,0.05,59.5,0)" xlink:href="#aE"/><use transform="matrix(0.05,0,0,0.05,71.5,0)" xlink:href="#aJ"/></g><use transform="matrix(0.05,0,0,0.05,0,0)" xlink:href="#aH" id="l"/><path fill="#333" d="M266 0h-40l-56-210L115 0H75L2-248h35L96-30l15-64 43-154h32l59 218 59-218h35" id="aV"/><g id="m"><use transform="matrix(0.05,0,0,0.05,0,0)" xlink:href="#aF"/><use transform="matrix(0.05,0,0,0.05,12.950000000000001,0)" xlink:href="#aE"/><use transform="matrix(0.05,0,0,0.05,24.950000000000003,0)" xlink:href="#aV"/></g><g id="n"><use transform="matrix(0.05,0,0,0.05,0,0)" xlink:href="#aO"/><use transform="matrix(0.05,0,0,0.05,12.950000000000001,0)" xlink:href="#aJ"/><use transform="matrix(0.05,0,0,0.05,24.950000000000003,0)" xlink:href="#aE"/><use transform="matrix(0.05,0,0,0.05,36.95,0)" xlink:href="#aL"/></g><path fill="#333" d="M47-170H22l-4-78h33" id="aW"/><g id="o"><use transform="matrix(0.05,0,0,0.05,0,0)" xlink:href="#aO"/><use transform="matrix(0.05,0,0,0.05,12.950000000000001,0)" xlink:href="#aJ"/><use transform="matrix(0.05,0,0,0.05,24.950000000000003,0)" xlink:href="#aE"/><use transform="matrix(0.05,0,0,0.05,36.95,0)" xlink:href="#aL"/><use transform="matrix(0.05,0,0,0.05,49.900000000000006,0)" xlink:href="#aW"/><use transform="matrix(0.05,0,0,0.05,53.300000000000004,0)" xlink:href="#aJ"/></g><g id="p"><use transform="matrix(0.05,0,0,0.05,0,0)" xlink:href="#aE"/><use transform="matrix(0.05,0,0,0.05,12,0)" xlink:href="#aQ"/><use transform="matrix(0.05,0,0,0.05,26.950000000000003,0)" xlink:href="#aH"/><use transform="matrix(0.05,0,0,0.05,38.95,0)" xlink:href="#aD"/><use transform="matrix(0.05,0,0,0.05,43.95,0)" xlink:href="#aC"/></g><g id="q"><use transform="matrix(0.05,0,0,0.05,0,0)" xlink:href="#aJ"/><use transform="matrix(0.05,0,0,0.05,12,0)" xlink:href="#aE"/><use transform="matrix(0.05,0,0,0.05,24,0)" xlink:href="#aL"/><use transform="matrix(0.05,0,0,0.05,36.6,0)" xlink:href="#aS"/><use transform="matrix(0.05,0,0,0.05,48.6,0)" xlink:href="#aD"/><use transform="matrix(0.05,0,0,0.05,53.6,0)" xlink:href="#aB"/><use transform="matrix(0.05,0,0,0.05,66.55,0)" xlink:href="#aE"/></g><g id="r"><use transform="matrix(0.05,0,0,0.05,0,0)" xlink:href="#aQ"/><use transform="matrix(0.05,0,0,0.05,14.950000000000001,0)" xlink:href="#aE"/><use transform="matrix(0.05,0,0,0.05,26.950000000000003,0)" xlink:href="#aJ"/><use transform="matrix(0.05,0,0,0.05,38.95,0)" xlink:href="#aJ"/><use transform="matrix(0.05,0,0,0.05,50.95,0)" xlink:href="#aH"/><use transform="matrix(0.05,0,0,0.05,62.95,0)" xlink:href="#aM"/><use transform="matrix(0.05,0,0,0.05,76.95,0)" xlink:href="#aE"/></g><g id="s"><use transform="matrix(0.05,0,0,0.05,0,0)" xlink:href="#aG"/><use transform="matrix(0.05,0,0,0.05,10.600000000000001,0)" xlink:href="#aR"/></g><g id="t"><use transform="matrix(0.05,0,0,0.05,0,0)" xlink:href="#aG"/><use transform="matrix(0.05,0,0,0.05,10.950000000000001,0)" xlink:href="#aP"/><use transform="matrix(0.05,0,0,0.05,23.900000000000002,0)" xlink:href="#aE"/></g><path fill="#333" d="M194 0L95-120 63-95V0H30v-248h33v124l119-124h40L117-140 236 0h-42" id="aX"/><g id="u"><use transform="matrix(0.05,0,0,0.05,0,0)" xlink:href="#aT"/><use transform="matrix(0.05,0,0,0.05,12,0)" xlink:href="#aL"/><use transform="matrix(0.05,0,0,0.05,24.950000000000003,0)" xlink:href="#aR"/><use transform="matrix(0.05,0,0,0.05,38.95,0)" xlink:href="#aX"/><use transform="matrix(0.05,0,0,0.05,50.95,0)" xlink:href="#aE"/><use transform="matrix(0.05,0,0,0.05,62.95,0)" xlink:href="#aL"/></g><g id="v"><use transform="matrix(0.05,0,0,0.05,0,0)" xlink:href="#aV"/><use transform="matrix(0.05,0,0,0.05,16.95,0)" xlink:href="#aD"/><use transform="matrix(0.05,0,0,0.05,21.95,0)" xlink:href="#aG"/><use transform="matrix(0.05,0,0,0.05,32.9,0)" xlink:href="#aP"/></g><g id="w"><use transform="matrix(0.05,0,0,0.05,0,0)" xlink:href="#aO"/><use transform="matrix(0.05,0,0,0.05,12.950000000000001,0)" xlink:href="#aJ"/><use transform="matrix(0.05,0,0,0.05,24.950000000000003,0)" xlink:href="#aE"/><use transform="matrix(0.05,0,0,0.05,36.95,0)" xlink:href="#aL"/></g><g id="x"><use transform="matrix(0.05,0,0,0.05,0,0)" xlink:href="#aE"/><use transform="matrix(0.05,0,0,0.05,12,0)" xlink:href="#aQ"/><use transform="matrix(0.05,0,0,0.05,26.950000000000003,0)" xlink:href="#aH"/><use transform="matrix(0.05,0,0,0.05,38.95,0)" xlink:href="#aD"/><use transform="matrix(0.05,0,0,0.05,43.95,0)" xlink:href="#aC"/></g><g id="y"><use transform="matrix(0.05,0,0,0.05,0,0)" xlink:href="#aD"/><use transform="matrix(0.05,0,0,0.05,5,0)" xlink:href="#aF"/><use transform="matrix(0.05,0,0,0.05,17.950000000000003,0)" xlink:href="#aU"/><use transform="matrix(0.05,0,0,0.05,28.900000000000006,0)" xlink:href="#aR"/><use transform="matrix(0.05,0,0,0.05,42.900000000000006,0)" xlink:href="#aL"/><use transform="matrix(0.05,0,0,0.05,55.85,0)" xlink:href="#aQ"/><use transform="matrix(0.05,0,0,0.05,70.80000000000001,0)" xlink:href="#aH"/><use transform="matrix(0.05,0,0,0.05,81.45000000000002,0)" xlink:href="#aG"/><use transform="matrix(0.05,0,0,0.05,92.40000000000002,0)" xlink:href="#aD"/><use transform="matrix(0.05,0,0,0.05,97.40000000000002,0)" xlink:href="#aR"/><use transform="matrix(0.05,0,0,0.05,111.40000000000003,0)" xlink:href="#aF"/></g><g id="z"><use transform="matrix(0.05,0,0,0.05,0,0)" xlink:href="#aI"/><use transform="matrix(0.05,0,0,0.05,12,0)" xlink:href="#aO"/><use transform="matrix(0.05,0,0,0.05,24.950000000000003,0)" xlink:href="#aG"/><use transform="matrix(0.05,0,0,0.05,35.900000000000006,0)" xlink:href="#aJ"/></g><g id="A"><use transform="matrix(0.05,0,0,0.05,0,0)" xlink:href="#aD"/><use transform="matrix(0.05,0,0,0.05,5,0)" xlink:href="#aF"/></g><g id="B"><use transform="matrix(0.05,0,0,0.05,0,0)" xlink:href="#aN"/><use transform="matrix(0.05,0,0,0.05,14,0)" xlink:href="#aO"/><use transform="matrix(0.05,0,0,0.05,26.950000000000003,0)" xlink:href="#aE"/><use transform="matrix(0.05,0,0,0.05,38.95,0)" xlink:href="#aO"/><use transform="matrix(0.05,0,0,0.05,51.900000000000006,0)" xlink:href="#aE"/></g><g id="C"><use transform="matrix(0.05,0,0,0.05,0,0)" xlink:href="#aI"/><use transform="matrix(0.05,0,0,0.05,12,0)" xlink:href="#aO"/><use transform="matrix(0.05,0,0,0.05,24.950000000000003,0)" xlink:href="#aC"/><use transform="matrix(0.05,0,0,0.05,34.95,0)" xlink:href="#aC"/><use transform="matrix(0.05,0,0,0.05,44.95,0)" xlink:href="#aJ"/></g><g id="D"><use transform="matrix(0.05,0,0,0.05,0,0)" xlink:href="#aQ"/><use transform="matrix(0.05,0,0,0.05,14.950000000000001,0)" xlink:href="#aE"/><use transform="matrix(0.05,0,0,0.05,26.950000000000003,0)" xlink:href="#aJ"/><use transform="matrix(0.05,0,0,0.05,38.95,0)" xlink:href="#aJ"/><use transform="matrix(0.05,0,0,0.05,50.95,0)" xlink:href="#aH"/><use transform="matrix(0.05,0,0,0.05,62.95,0)" xlink:href="#aM"/><use transform="matrix(0.05,0,0,0.05,76.95,0)" xlink:href="#aE"/></g><g id="E"><use transform="matrix(0.05,0,0,0.05,0,0)" xlink:href="#aU"/><use transform="matrix(0.05,0,0,0.05,10.950000000000001,0)" xlink:href="#aL"/><use transform="matrix(0.05,0,0,0.05,23.900000000000002,0)" xlink:href="#aR"/><use transform="matrix(0.05,0,0,0.05,37.900000000000006,0)" xlink:href="#aQ"/></g><g id="F"><use transform="matrix(0.05,0,0,0.05,0,0)" xlink:href="#aS"/><use transform="matrix(0.05,0,0,0.05,12,0)" xlink:href="#aE"/><use transform="matrix(0.05,0,0,0.05,24,0)" xlink:href="#aL"/><use transform="matrix(0.05,0,0,0.05,36.95,0)" xlink:href="#aD"/><use transform="matrix(0.05,0,0,0.05,41.95,0)" xlink:href="#aU"/><use transform="matrix(0.05,0,0,0.05,52.900000000000006,0)" xlink:href="#aD"/><use transform="matrix(0.05,0,0,0.05,57.900000000000006,0)" xlink:href="#aB"/><use transform="matrix(0.05,0,0,0.05,70.85000000000001,0)" xlink:href="#aH"/><use transform="matrix(0.05,0,0,0.05,81.50000000000001,0)" xlink:href="#aG"/><use transform="matrix(0.05,0,0,0.05,92.45000000000002,0)" xlink:href="#aD"/><use transform="matrix(0.05,0,0,0.05,97.45000000000002,0)" xlink:href="#aR"/><use transform="matrix(0.05,0,0,0.05,111.45,0)" xlink:href="#aF"/></g><g id="G"><use transform="matrix(0.05,0,0,0.05,0,0)" xlink:href="#aC"/><use transform="matrix(0.05,0,0,0.05,10,0)" xlink:href="#aD"/><use transform="matrix(0.05,0,0,0.05,15,0)" xlink:href="#aF"/><use transform="matrix(0.05,0,0,0.05,27.950000000000003,0)" xlink:href="#aX"/></g><g id="H"><use transform="matrix(0.05,0,0,0.05,0,0)" xlink:href="#aB"/><use transform="matrix(0.05,0,0,0.05,12.950000000000001,0)" xlink:href="#aR"/><use transform="matrix(0.05,0,0,0.05,26.950000000000003,0)" xlink:href="#aF"/><use transform="matrix(0.05,0,0,0.05,39.900000000000006,0)" xlink:href="#aG"/><use transform="matrix(0.05,0,0,0.05,49.50000000000001,0)" xlink:href="#aH"/><use transform="matrix(0.05,0,0,0.05,61.5,0)" xlink:href="#aD"/><use transform="matrix(0.05,0,0,0.05,66.5,0)" xlink:href="#aF"/><use transform="matrix(0.05,0,0,0.05,79.45,0)" xlink:href="#aD"/><use transform="matrix(0.05,0,0,0.05,84.45,0)" xlink:href="#aF"/><use transform="matrix(0.05,0,0,0.05,97.4,0)" xlink:href="#aM"/></g><use transform="matrix(0.05,0,0,0.05,0,0)" xlink:href="#aH" id="I"/><g id="J"><use transform="matrix(0.05,0,0,0.05,0,0)" xlink:href="#aS"/><use transform="matrix(0.05,0,0,0.05,12,0)" xlink:href="#aE"/><use transform="matrix(0.05,0,0,0.05,24,0)" xlink:href="#aL"/><use transform="matrix(0.05,0,0,0.05,36.95,0)" xlink:href="#aD"/><use transform="matrix(0.05,0,0,0.05,41.95,0)" xlink:href="#aU"/><use transform="matrix(0.05,0,0,0.05,52.900000000000006,0)" xlink:href="#aD"/><use transform="matrix(0.05,0,0,0.05,57.900000000000006,0)" xlink:href="#aB"/><use transform="matrix(0.05,0,0,0.05,70.85000000000001,0)" xlink:href="#aH"/><use transform="matrix(0.05,0,0,0.05,81.50000000000001,0)" xlink:href="#aG"/><use transform="matrix(0.05,0,0,0.05,92.45000000000002,0)" xlink:href="#aD"/><use transform="matrix(0.05,0,0,0.05,97.45000000000002,0)" xlink:href="#aR"/><use transform="matrix(0.05,0,0,0.05,111.45,0)" xlink:href="#aF"/></g><g id="K"><use transform="matrix(0.05,0,0,0.05,0,0)" xlink:href="#aB"/><use transform="matrix(0.05,0,0,0.05,12.950000000000001,0)" xlink:href="#aR"/><use transform="matrix(0.05,0,0,0.05,26.950000000000003,0)" xlink:href="#aK"/><use transform="matrix(0.05,0,0,0.05,39.900000000000006,0)" xlink:href="#aE"/></g><g id="L"><use transform="matrix(0.05,0,0,0.05,0,0)" xlink:href="#aO"/><use transform="matrix(0.05,0,0,0.05,12.950000000000001,0)" xlink:href="#aJ"/><use transform="matrix(0.05,0,0,0.05,24.950000000000003,0)" xlink:href="#aE"/><use transform="matrix(0.05,0,0,0.05,36.95,0)" xlink:href="#aL"/></g><g id="M"><use transform="matrix(0.05,0,0,0.05,0,0)" xlink:href="#aB"/><use transform="matrix(0.05,0,0,0.05,12.950000000000001,0)" xlink:href="#aC"/><use transform="matrix(0.05,0,0,0.05,22.950000000000003,0)" xlink:href="#aD"/><use transform="matrix(0.05,0,0,0.05,27.950000000000003,0)" xlink:href="#aB"/><use transform="matrix(0.05,0,0,0.05,40.900000000000006,0)" xlink:href="#aX"/><use transform="matrix(0.05,0,0,0.05,52.900000000000006,0)" xlink:href="#aJ"/></g><g id="N"><use transform="matrix(0.05,0,0,0.05,0,0)" xlink:href="#aR"/><use transform="matrix(0.05,0,0,0.05,14,0)" xlink:href="#aF"/></g><g id="O"><use transform="matrix(0.05,0,0,0.05,0,0)" xlink:href="#aD"/><use transform="matrix(0.05,0,0,0.05,5,0)" xlink:href="#aF"/></g><g id="P"><use transform="matrix(0.05,0,0,0.05,0,0)" xlink:href="#aE"/><use transform="matrix(0.05,0,0,0.05,12,0)" xlink:href="#aQ"/><use transform="matrix(0.05,0,0,0.05,26.950000000000003,0)" xlink:href="#aH"/><use transform="matrix(0.05,0,0,0.05,38.95,0)" xlink:href="#aD"/><use transform="matrix(0.05,0,0,0.05,43.95,0)" xlink:href="#aC"/></g><g id="Q"><use transform="matrix(0.05,0,0,0.05,0,0)" xlink:href="#aO"/><use transform="matrix(0.05,0,0,0.05,12.950000000000001,0)" xlink:href="#aJ"/><use transform="matrix(0.05,0,0,0.05,24.950000000000003,0)" xlink:href="#aE"/><use transform="matrix(0.05,0,0,0.05,36.95,0)" xlink:href="#aL"/></g><g id="R"><use transform="matrix(0.05,0,0,0.05,0,0)" xlink:href="#aD"/><use transform="matrix(0.05,0,0,0.05,5,0)" xlink:href="#aJ"/></g><g id="S"><use transform="matrix(0.05,0,0,0.05,0,0)" xlink:href="#aG"/><use transform="matrix(0.05,0,0,0.05,10.950000000000001,0)" xlink:href="#aL"/><use transform="matrix(0.05,0,0,0.05,23.900000000000002,0)" xlink:href="#aH"/><use transform="matrix(0.05,0,0,0.05,35.900000000000006,0)" xlink:href="#aF"/><use transform="matrix(0.05,0,0,0.05,48.85000000000001,0)" xlink:href="#aJ"/><use transform="matrix(0.05,0,0,0.05,60.85,0)" xlink:href="#aU"/><use transform="matrix(0.05,0,0,0.05,71.80000000000001,0)" xlink:href="#aE"/><use transform="matrix(0.05,0,0,0.05,83.80000000000001,0)" xlink:href="#aL"/><use transform="matrix(0.05,0,0,0.05,96.75000000000001,0)" xlink:href="#aE"/><use transform="matrix(0.05,0,0,0.05,108.75,0)" xlink:href="#aK"/></g><g id="T"><use transform="matrix(0.05,0,0,0.05,0,0)" xlink:href="#aG"/><use transform="matrix(0.05,0,0,0.05,10.600000000000001,0)" xlink:href="#aR"/></g><g id="U"><use transform="matrix(0.05,0,0,0.05,0,0)" xlink:href="#aG"/><use transform="matrix(0.05,0,0,0.05,10.950000000000001,0)" xlink:href="#aP"/><use transform="matrix(0.05,0,0,0.05,23.900000000000002,0)" xlink:href="#aE"/></g><g id="V"><use transform="matrix(0.05,0,0,0.05,0,0)" xlink:href="#aB"/><use transform="matrix(0.05,0,0,0.05,12.950000000000001,0)" xlink:href="#aC"/><use transform="matrix(0.05,0,0,0.05,22.950000000000003,0)" xlink:href="#aD"/><use transform="matrix(0.05,0,0,0.05,27.950000000000003,0)" xlink:href="#aE"/><use transform="matrix(0.05,0,0,0.05,39.95,0)" xlink:href="#aF"/><use transform="matrix(0.05,0,0,0.05,52.900000000000006,0)" xlink:href="#aG"/><use transform="matrix(0.05,0,0,0.05,63.85,0)" xlink:href="#aW"/><use transform="matrix(0.05,0,0,0.05,67.25000000000001,0)" xlink:href="#aJ"/></g><path fill="#333" d="M137-103V0h-34v-103L8-248h37l75 118 75-118h37" id="aY"/><path fill="#333" d="M16-82v-28h88v28H16" id="aZ"/><g id="W"><use transform="matrix(0.05,0,0,0.05,0,0)" xlink:href="#aS"/><use transform="matrix(0.05,0,0,0.05,12,0)" xlink:href="#aE"/><use transform="matrix(0.05,0,0,0.05,24,0)" xlink:href="#aL"/><use transform="matrix(0.05,0,0,0.05,36.95,0)" xlink:href="#aD"/><use transform="matrix(0.05,0,0,0.05,41.95,0)" xlink:href="#aU"/><use transform="matrix(0.05,0,0,0.05,52.900000000000006,0)" xlink:href="#aY"/><use transform="matrix(0.05,0,0,0.05,63.25,0)" xlink:href="#aZ"/><use transform="matrix(0.05,0,0,0.05,69.2,0)" xlink:href="#aO"/><use transform="matrix(0.05,0,0,0.05,82.15,0)" xlink:href="#aJ"/><use transform="matrix(0.05,0,0,0.05,94.15,0)" xlink:href="#aE"/><use transform="matrix(0.05,0,0,0.05,106.15,0)" xlink:href="#aL"/></g><g id="X"><use transform="matrix(0.05,0,0,0.05,0,0)" xlink:href="#aE"/><use transform="matrix(0.05,0,0,0.05,12,0)" xlink:href="#aF"/><use transform="matrix(0.05,0,0,0.05,24.950000000000003,0)" xlink:href="#aK"/><use transform="matrix(0.05,0,0,0.05,37.900000000000006,0)" xlink:href="#aI"/><use transform="matrix(0.05,0,0,0.05,49.900000000000006,0)" xlink:href="#aR"/><use transform="matrix(0.05,0,0,0.05,63.900000000000006,0)" xlink:href="#aD"/><use transform="matrix(0.05,0,0,0.05,68.9,0)" xlink:href="#aF"/><use transform="matrix(0.05,0,0,0.05,81.85000000000001,0)" xlink:href="#aG"/></g><g id="Y"><use transform="matrix(0.05,0,0,0.05,0,0)" xlink:href="#aB"/><use transform="matrix(0.05,0,0,0.05,12.950000000000001,0)" xlink:href="#aC"/><use transform="matrix(0.05,0,0,0.05,22.950000000000003,0)" xlink:href="#aD"/><use transform="matrix(0.05,0,0,0.05,27.950000000000003,0)" xlink:href="#aE"/><use transform="matrix(0.05,0,0,0.05,39.95,0)" xlink:href="#aF"/><use transform="matrix(0.05,0,0,0.05,52.900000000000006,0)" xlink:href="#aG"/></g><g id="Z"><use transform="matrix(0.05,0,0,0.05,0,0)" xlink:href="#aJ"/><use transform="matrix(0.05,0,0,0.05,12,0)" xlink:href="#aE"/><use transform="matrix(0.05,0,0,0.05,24,0)" xlink:href="#aF"/><use transform="matrix(0.05,0,0,0.05,36.95,0)" xlink:href="#aK"/><use transform="matrix(0.05,0,0,0.05,49.900000000000006,0)" xlink:href="#aJ"/></g><use transform="matrix(0.05,0,0,0.05,0,0)" xlink:href="#aH" id="aa"/><g id="ab"><use transform="matrix(0.05,0,0,0.05,0,0)" xlink:href="#aL"/><use transform="matrix(0.05,0,0,0.05,12.950000000000001,0)" xlink:href="#aE"/><use transform="matrix(0.05,0,0,0.05,24.950000000000003,0)" xlink:href="#aN"/><use transform="matrix(0.05,0,0,0.05,38.95,0)" xlink:href="#aO"/><use transform="matrix(0.05,0,0,0.05,51.900000000000006,0)" xlink:href="#aE"/><use transform="matrix(0.05,0,0,0.05,63.900000000000006,0)" xlink:href="#aJ"/><use transform="matrix(0.05,0,0,0.05,75.9,0)" xlink:href="#aG"/></g><g id="ac"><use transform="matrix(0.05,0,0,0.05,0,0)" xlink:href="#aG"/><use transform="matrix(0.05,0,0,0.05,10.600000000000001,0)" xlink:href="#aR"/></g><g id="ad"><use transform="matrix(0.05,0,0,0.05,0,0)" xlink:href="#aH"/><use transform="matrix(0.05,0,0,0.05,12,0)" xlink:href="#aO"/><use transform="matrix(0.05,0,0,0.05,24.950000000000003,0)" xlink:href="#aG"/><use transform="matrix(0.05,0,0,0.05,35.900000000000006,0)" xlink:href="#aP"/></g><g id="ae"><use transform="matrix(0.05,0,0,0.05,0,0)" xlink:href="#aH"/><use transform="matrix(0.05,0,0,0.05,12,0)" xlink:href="#aI"/><use transform="matrix(0.05,0,0,0.05,24,0)" xlink:href="#aD"/></g><g id="af"><use transform="matrix(0.05,0,0,0.05,0,0)" xlink:href="#aH"/><use transform="matrix(0.05,0,0,0.05,12,0)" xlink:href="#aO"/><use transform="matrix(0.05,0,0,0.05,24.950000000000003,0)" xlink:href="#aG"/><use transform="matrix(0.05,0,0,0.05,35.900000000000006,0)" xlink:href="#aP"/></g><g id="ag"><use transform="matrix(0.05,0,0,0.05,0,0)" xlink:href="#aH"/><use transform="matrix(0.05,0,0,0.05,12,0)" xlink:href="#aI"/><use transform="matrix(0.05,0,0,0.05,24,0)" xlink:href="#aD"/></g><g id="ah"><use transform="matrix(0.05,0,0,0.05,0,0)" xlink:href="#aS"/><use transform="matrix(0.05,0,0,0.05,12,0)" xlink:href="#aE"/><use transform="matrix(0.05,0,0,0.05,24,0)" xlink:href="#aL"/><use transform="matrix(0.05,0,0,0.05,36.95,0)" xlink:href="#aD"/><use transform="matrix(0.05,0,0,0.05,41.95,0)" xlink:href="#aU"/><use transform="matrix(0.05,0,0,0.05,52.900000000000006,0)" xlink:href="#aD"/><use transform="matrix(0.05,0,0,0.05,57.900000000000006,0)" xlink:href="#aE"/><use transform="matrix(0.05,0,0,0.05,69.9,0)" xlink:href="#aJ"/></g><g id="ai"><use transform="matrix(0.05,0,0,0.05,0,0)" xlink:href="#aG"/><use transform="matrix(0.05,0,0,0.05,10.950000000000001,0)" xlink:href="#aP"/><use transform="matrix(0.05,0,0,0.05,23.900000000000002,0)" xlink:href="#aE"/></g><g id="aj"><use transform="matrix(0.05,0,0,0.05,0,0)" xlink:href="#aE"/><use transform="matrix(0.05,0,0,0.05,12,0)" xlink:href="#aF"/><use transform="matrix(0.05,0,0,0.05,24.950000000000003,0)" xlink:href="#aK"/><use transform="matrix(0.05,0,0,0.05,37.900000000000006,0)" xlink:href="#aI"/><use transform="matrix(0.05,0,0,0.05,49.900000000000006,0)" xlink:href="#aR"/><use transform="matrix(0.05,0,0,0.05,63.900000000000006,0)" xlink:href="#aD"/><use transform="matrix(0.05,0,0,0.05,68.9,0)" xlink:href="#aF"/><use transform="matrix(0.05,0,0,0.05,81.85000000000001,0)" xlink:href="#aG"/></g><g id="ak"><use transform="matrix(0.05,0,0,0.05,0,0)" xlink:href="#aB"/><use transform="matrix(0.05,0,0,0.05,12.950000000000001,0)" xlink:href="#aL"/><use transform="matrix(0.05,0,0,0.05,25.900000000000002,0)" xlink:href="#aE"/><use transform="matrix(0.05,0,0,0.05,37.900000000000006,0)" xlink:href="#aK"/><use transform="matrix(0.05,0,0,0.05,50.85000000000001,0)" xlink:href="#aE"/><use transform="matrix(0.05,0,0,0.05,62.85,0)" xlink:href="#aF"/><use transform="matrix(0.05,0,0,0.05,75.80000000000001,0)" xlink:href="#aG"/><use transform="matrix(0.05,0,0,0.05,86.75000000000001,0)" xlink:href="#aD"/><use transform="matrix(0.05,0,0,0.05,91.75000000000001,0)" xlink:href="#aH"/><use transform="matrix(0.05,0,0,0.05,103.75,0)" xlink:href="#aC"/><use transform="matrix(0.05,0,0,0.05,113.75,0)" xlink:href="#aJ"/></g><g id="al"><use transform="matrix(0.05,0,0,0.05,0,0)" xlink:href="#aH"/><use transform="matrix(0.05,0,0,0.05,12,0)" xlink:href="#aF"/><use transform="matrix(0.05,0,0,0.05,24.950000000000003,0)" xlink:href="#aK"/></g><g id="am"><use transform="matrix(0.05,0,0,0.05,0,0)" xlink:href="#aJ"/><use transform="matrix(0.05,0,0,0.05,12,0)" xlink:href="#aE"/><use transform="matrix(0.05,0,0,0.05,24,0)" xlink:href="#aG"/><use transform="matrix(0.05,0,0,0.05,34.95,0)" xlink:href="#aJ"/></g><g id="an"><use transform="matrix(0.05,0,0,0.05,0,0)" xlink:href="#aO"/><use transform="matrix(0.05,0,0,0.05,12.950000000000001,0)" xlink:href="#aJ"/><use transform="matrix(0.05,0,0,0.05,24.950000000000003,0)" xlink:href="#aE"/><use transform="matrix(0.05,0,0,0.05,36.95,0)" xlink:href="#aL"/></g><g id="ao"><use transform="matrix(0.05,0,0,0.05,0,0)" xlink:href="#aH"/><use transform="matrix(0.05,0,0,0.05,12,0)" xlink:href="#aJ"/></g><g id="ap"><use transform="matrix(0.05,0,0,0.05,0,0)" xlink:href="#aS"/><use transform="matrix(0.05,0,0,0.05,12,0)" xlink:href="#aE"/><use transform="matrix(0.05,0,0,0.05,24,0)" xlink:href="#aL"/><use transform="matrix(0.05,0,0,0.05,36.95,0)" xlink:href="#aD"/><use transform="matrix(0.05,0,0,0.05,41.95,0)" xlink:href="#aU"/><use transform="matrix(0.05,0,0,0.05,52.900000000000006,0)" xlink:href="#aD"/><use transform="matrix(0.05,0,0,0.05,57.900000000000006,0)" xlink:href="#aE"/><use transform="matrix(0.05,0,0,0.05,69.9,0)" xlink:href="#aK"/></g><path fill="#333" d="M23 0v-37h61v-169l-59 37v-38l62-41h46v211h57V0H23" id="ba"/><use transform="matrix(0.056172839506172835,0,0,0.056172839506172835,0,0)" xlink:href="#ba" id="aq"/><path fill="#333" d="M182-182c0 78-84 86-111 141h115V0H12c-6-101 99-100 120-180 1-22-12-31-33-32-23 0-32 14-35 34l-49-3c5-45 32-70 84-70 51 0 83 22 83 69" id="bb"/><use transform="matrix(0.056172839506172835,0,0,0.056172839506172835,0,0)" xlink:href="#bb" id="ar"/><path fill="#333" d="M128-127c34 4 56 21 59 58 7 91-148 94-172 28-4-9-6-17-7-26l51-5c1 24 16 35 40 36 23 0 39-12 38-36-1-31-31-36-65-34v-40c32 2 59-3 59-33 0-20-13-33-34-33s-33 13-35 32l-50-3c6-44 37-68 86-68 50 0 83 20 83 66 0 35-22 52-53 58" id="bc"/><use transform="matrix(0.056172839506172835,0,0,0.056172839506172835,0,0)" xlink:href="#bc" id="as"/><path fill="#333" d="M165-50V0h-47v-50H5v-38l105-160h55v161h33v37h-33zm-47-37l2-116L46-87h72" id="bd"/><use transform="matrix(0.056172839506172835,0,0,0.056172839506172835,0,0)" xlink:href="#bd" id="at"/><path fill="#333" d="M139-81c0-46-55-55-73-27H18l9-140h149v37H72l-4 63c44-38 133-4 122 66C201 21 21 35 11-62l49-4c5 18 15 30 39 30 26 0 40-18 40-45" id="be"/><use transform="matrix(0.056172839506172835,0,0,0.056172839506172835,0,0)" xlink:href="#be" id="au"/><path fill="#333" d="M115-159c48 0 72 30 72 78 0 54-30 85-83 85-64 0-91-50-91-122 0-98 58-163 141-120 15 8 21 24 27 44l-47 6c-5-31-48-31-61-4-7 14-11 33-11 60 9-17 28-27 53-27zM102-35c24 0 36-20 36-45s-11-43-37-43c-23 0-36 14-36 38 0 27 11 50 37 50" id="bf"/><use transform="matrix(0.056172839506172835,0,0,0.056172839506172835,0,0)" xlink:href="#bf" id="av"/><path fill="#333" d="M52 0c1-96 47-148 87-207H15v-41h169v40c-36 62-79 113-81 208H52" id="bg"/><use transform="matrix(0.056172839506172835,0,0,0.056172839506172835,0,0)" xlink:href="#bg" id="aw"/><path fill="#333" d="M138-131c27 9 52 24 51 61 0 53-36 74-89 74S11-19 11-69c0-35 22-54 51-61-78-25-46-121 38-121 51 0 83 19 83 66 0 30-18 49-45 54zm-38-16c24 0 32-13 32-36 1-23-11-34-32-34-22 0-33 12-32 34 0 22 9 36 32 36zm1 116c27 0 37-17 37-43 0-25-13-39-39-39-24 0-37 15-37 40 0 27 11 42 39 42" id="bh"/><use transform="matrix(0.056172839506172835,0,0,0.056172839506172835,0,0)" xlink:href="#bh" id="ax"/><path fill="#333" d="M99-251c69 0 84 53 88 123 5 99-61 162-144 118-15-8-21-25-26-45l46-6c4 31 50 33 63 7 7-15 12-36 12-60-9 18-29 28-54 28-48 0-72-32-72-82 0-55 31-83 87-83zm-1 128c24 0 37-16 37-39 0-27-10-51-37-51-25 0-35 19-35 45 0 25 10 45 35 45" id="bi"/><use transform="matrix(0.056172839506172835,0,0,0.056172839506172835,0,0)" xlink:href="#bi" id="ay"/><path fill="#333" d="M101-251c68 0 84 54 84 127C185-50 166 4 99 4S15-52 14-124c-1-75 17-127 87-127zm-1 216c37-5 36-46 36-89s4-89-36-89c-39 0-36 45-36 89 0 43-3 85 36 89" id="bj"/><g id="az"><use transform="matrix(0.056172839506172835,0,0,0.056172839506172835,0,0)" xlink:href="#ba"/><use transform="matrix(0.056172839506172835,0,0,0.056172839506172835,11.234567901234566,0)" xlink:href="#bj"/></g><g id="aA"><use transform="matrix(0.056172839506172835,0,0,0.056172839506172835,0,0)" xlink:href="#ba"/><use transform="matrix(0.056172839506172835,0,0,0.056172839506172835,10.111111111111109,0)" xlink:href="#ba"/></g></defs></g></svg>