<svg xmlns="http://www.w3.org/2000/svg" xmlns:xlink="http://www.w3.org/1999/xlink" xmlns:lucid="lucid" width="2060" height="1080"><g transform="translate(20 -1400)" lucid:page-tab-id="0_0"><path d="M1560 1546a6 6 0 0 1 6-6h448a6 6 0 0 1 6 6v908a6 6 0 0 1-6 6h-448a6 6 0 0 1-6-6z" stroke="#8ca88e" stroke-width="3" fill="#e3fae3"/><path d="M1060 1546a6 6 0 0 1 6-6h448a6 6 0 0 1 6 6v908a6 6 0 0 1-6 6h-448a6 6 0 0 1-6-6z" stroke="#8ca88e" stroke-width="3" fill="#dfe3e8"/><path d="M560 1546a6 6 0 0 1 6-6h448a6 6 0 0 1 6 6v908a6 6 0 0 1-6 6H566a6 6 0 0 1-6-6z" stroke="#8ca88e" stroke-width="3" fill="#edf5ff"/><path d="M60 1546a6 6 0 0 1 6-6h448a6 6 0 0 1 6 6v908a6 6 0 0 1-6 6H66a6 6 0 0 1-6-6z" stroke="#8ca88e" stroke-width="3" fill="#fff3d9"/><path d="M0 1546a6 6 0 0 1 6-6h228a6 6 0 0 1 6 6v48a6 6 0 0 1-6 6H6a6 6 0 0 1-6-6z" fill="none"/><use xlink:href="#a" transform="matrix(1,0,0,1,0,1540) translate(88.07499999999999 33.6)"/><path d="M560 1546a6 6 0 0 1 6-6h228a6 6 0 0 1 6 6v48a6 6 0 0 1-6 6H566a6 6 0 0 1-6-6z" fill="none"/><use xlink:href="#b" transform="matrix(1,0,0,1,560,1540) translate(23.87499999999997 33.6)"/><use xlink:href="#c" transform="matrix(1,0,0,1,560,1540) translate(77.72499999999998 33.6)"/><path d="M1020 1546a6 6 0 0 1 6-6h228a6 6 0 0 1 6 6v48a6 6 0 0 1-6 6h-228a6 6 0 0 1-6-6z" fill="none"/><use xlink:href="#d" transform="matrix(1,0,0,1,1020,1540) translate(59.724999999999994 33.6)"/><use xlink:href="#e" transform="matrix(1,0,0,1,1020,1540) translate(93.725 33.6)"/><path d="M1560 1546a6 6 0 0 1 6-6h228a6 6 0 0 1 6 6v48a6 6 0 0 1-6 6h-228a6 6 0 0 1-6-6z" fill="none"/><use xlink:href="#f" transform="matrix(1,0,0,1,1560,1540) translate(10.874999999999972 33.6)"/><use xlink:href="#g" transform="matrix(1,0,0,1,1560,1540) translate(78.72499999999998 33.6)"/><path d="M320 1470c0 27.6-22.4 50-50 50s-50-22.4-50-50 22.4-50 50-50 50 22.4 50 50z" stroke="#5e5e5e" stroke-width="3"/><path d="M368 1620c28.72 0 52 17.9 52 40s-23.28 40-52 40H212c-28.72 0-52-17.9-52-40s23.28-40 52-40z" stroke="#5e5e5e" stroke-width="3" fill="#fff"/><use xlink:href="#h" transform="matrix(1,0,0,1,165,1625) translate(17.64999999999999 38.4625)"/><use xlink:href="#i" transform="matrix(1,0,0,1,165,1625) translate(84.55 38.4625)"/><use xlink:href="#j" transform="matrix(1,0,0,1,165,1625) translate(145.5 38.4625)"/><path d="M868 1640c28.72 0 52 17.9 52 40s-23.28 40-52 40H712c-28.72 0-52-17.9-52-40s23.28-40 52-40z" stroke="#5e5e5e" stroke-width="3" fill="#fff"/><use xlink:href="#k" transform="matrix(1,0,0,1,665,1645) translate(24.055 27.525)"/><use xlink:href="#l" transform="matrix(1,0,0,1,665,1645) translate(138.555 27.525)"/><use xlink:href="#m" transform="matrix(1,0,0,1,665,1645) translate(180.10500000000002 27.525)"/><use xlink:href="#n" transform="matrix(1,0,0,1,665,1645) translate(35.37999999999999 49.125)"/><use xlink:href="#o" transform="matrix(1,0,0,1,665,1645) translate(90.28 49.125)"/><path d="M424 1660.2l209.73 17.7" stroke="#5e5e5e" stroke-width="5" fill="none"/><path d="M424.26 1657.72l-.4 5-2.48-.22.12-2.48-.02-1.1-.1-1.44z" stroke="#5e5e5e" stroke-width=".05" fill="#5e5e5e"/><path d="M650.44 1679.32l-14.6 3.42.77-9.24z" stroke="#5e5e5e" stroke-width="5" fill="#5e5e5e"/><path d="M368 1740c28.72 0 52 17.9 52 40s-23.28 40-52 40H212c-28.72 0-52-17.9-52-40s23.28-40 52-40z" stroke="#5e5e5e" stroke-width="3" fill="#fff"/><use xlink:href="#h" transform="matrix(1,0,0,1,165,1745) translate(14.380000000000004 27.525)"/><use xlink:href="#p" transform="matrix(1,0,0,1,165,1745) translate(81.28000000000002 27.525)"/><use xlink:href="#q" transform="matrix(1,0,0,1,165,1745) translate(135.23000000000002 27.525)"/><use xlink:href="#l" transform="matrix(1,0,0,1,165,1745) translate(176.13000000000002 27.525)"/><use xlink:href="#r" transform="matrix(1,0,0,1,165,1745) translate(217.68 27.525)"/><use xlink:href="#q" transform="matrix(1,0,0,1,165,1745) translate(14.679999999999987 49.125)"/><use xlink:href="#s" transform="matrix(1,0,0,1,165,1745) translate(55.57999999999999 49.125)"/><use xlink:href="#t" transform="matrix(1,0,0,1,165,1745) translate(160.48 49.125)"/><path d="M787.53 1721.9l-341.48 54.2" stroke="#5e5e5e" stroke-width="5" fill="none"/><path d="M793.36 1723.5l-5.5.87-.46-2.87h5.64z" stroke="#5e5e5e" stroke-width=".05" fill="#5e5e5e"/><path d="M429.5 1778.73l13.35-6.8 1.46 9.14z" stroke="#5e5e5e" stroke-width="5" fill="#5e5e5e"/><path d="M1388 1781.5c28.72 0 52 17.9 52 40s-23.28 40-52 40h-156c-28.72 0-52-17.9-52-40s23.28-40 52-40z" stroke="#5e5e5e" stroke-width="3" fill="#fff"/><use xlink:href="#h" transform="matrix(1,0,0,1,1185,1786.5) translate(17.57999999999999 27.525)"/><use xlink:href="#q" transform="matrix(1,0,0,1,1185,1786.5) translate(84.48 27.525)"/><use xlink:href="#l" transform="matrix(1,0,0,1,1185,1786.5) translate(125.38000000000001 27.525)"/><use xlink:href="#u" transform="matrix(1,0,0,1,1185,1786.5) translate(166.93 27.525)"/><use xlink:href="#v" transform="matrix(1,0,0,1,1185,1786.5) translate(196.53 27.525)"/><use xlink:href="#w" transform="matrix(1,0,0,1,1185,1786.5) translate(64.73 49.125)"/><use xlink:href="#e" transform="matrix(1,0,0,1,1185,1786.5) translate(98.72999999999999 49.125)"/><path d="M292.5 1821.5h861.14" stroke="#5e5e5e" stroke-width="5" fill="none"/><path d="M292.56 1824H287v-2.5h5.56z" stroke="#5e5e5e" stroke-width=".05" fill="#5e5e5e"/><path d="M1170.4 1821.5l-14.26 4.63v-9.27z" stroke="#5e5e5e" stroke-width="5" fill="#5e5e5e"/><path d="M1388 1900c28.72 0 52 17.9 52 40s-23.28 40-52 40h-156c-28.72 0-52-17.9-52-40s23.28-40 52-40z" stroke="#5e5e5e" stroke-width="3" fill="#fff"/><use xlink:href="#x" transform="matrix(1,0,0,1,1185,1905) translate(42.64999999999999 38.4625)"/><use xlink:href="#q" transform="matrix(1,0,0,1,1185,1905) translate(129.55 38.4625)"/><use xlink:href="#y" transform="matrix(1,0,0,1,1185,1905) translate(170.45 38.4625)"/><path d="M1310 1865.5v8.14" stroke="#5e5e5e" stroke-width="5" fill="none"/><path d="M1312.5 1865.56h-5V1863h5z" stroke="#5e5e5e" stroke-width=".05" fill="#5e5e5e"/><path d="M1310 1890.4l-4.63-14.26h9.27z" stroke="#5e5e5e" stroke-width="5" fill="#5e5e5e"/><path d="M1868 1960c28.72 0 52 17.9 52 40s-23.28 40-52 40h-156c-28.72 0-52-17.9-52-40s23.28-40 52-40z" stroke="#5e5e5e" stroke-width="3" fill="#fff"/><g><use xlink:href="#z" transform="matrix(1,0,0,1,1665,1965) translate(59.57999999999999 27.525)"/><use xlink:href="#n" transform="matrix(1,0,0,1,1665,1965) translate(111.53 27.525)"/><use xlink:href="#A" transform="matrix(1,0,0,1,1665,1965) translate(166.43 27.525)"/><use xlink:href="#B" transform="matrix(1,0,0,1,1665,1965) translate(50.38 49.125)"/></g><path d="M1312.5 1981.63l321.18 17.05" stroke="#5e5e5e" stroke-width="5" fill="none"/><path d="M1312.43 1984.13l-5.56-.3.13-2.33h5.57z" stroke="#5e5e5e" stroke-width=".05" fill="#5e5e5e"/><path d="M1650.42 1999.57l-14.5 3.87.5-9.25z" stroke="#5e5e5e" stroke-width="5" fill="#5e5e5e"/><path d="M1868 2120c28.72 0 52 17.9 52 40s-23.28 40-52 40h-156c-28.72 0-52-17.9-52-40s23.28-40 52-40z" stroke="#5e5e5e" stroke-width="3" fill="#fff"/><g><use xlink:href="#C" transform="matrix(1,0,0,1,1665,2125) translate(55.129999999999995 16.5875)"/><use xlink:href="#D" transform="matrix(1,0,0,1,1665,2125) translate(144.98000000000002 16.5875)"/><use xlink:href="#E" transform="matrix(1,0,0,1,1665,2125) translate(52.349999999999994 38.1875)"/><use xlink:href="#F" transform="matrix(1,0,0,1,1665,2125) translate(64.28 59.7875)"/></g><path d="M1790 2044v49.64" stroke="#5e5e5e" stroke-width="5" fill="none"/><path d="M1792.5 2044.06h-5v-2.56h5z" stroke="#5e5e5e" stroke-width=".05" fill="#5e5e5e"/><path d="M1790 2110.4l-4.63-14.26h9.27z" stroke="#5e5e5e" stroke-width="5" fill="#5e5e5e"/><path d="M1868 2280c28.72 0 52 17.9 52 40s-23.28 40-52 40h-156c-28.72 0-52-17.9-52-40s23.28-40 52-40z" stroke="#5e5e5e" stroke-width="3" fill="#fff"/><g><use xlink:href="#C" transform="matrix(1,0,0,1,1665,2285) translate(16.19999999999999 38.4625)"/><use xlink:href="#q" transform="matrix(1,0,0,1,1665,2285) translate(106.05 38.4625)"/><use xlink:href="#j" transform="matrix(1,0,0,1,1665,2285) translate(146.95 38.4625)"/></g><path d="M1790 2204v49.64" stroke="#5e5e5e" stroke-width="5" fill="none"/><path d="M1792.5 2204.06h-5v-2.56h5z" stroke="#5e5e5e" stroke-width=".05" fill="#5e5e5e"/><path d="M1790 2270.4l-4.63-14.26h9.27z" stroke="#5e5e5e" stroke-width="5" fill="#5e5e5e"/><path d="M270.5 1523.95l14.48 70.2" stroke="#5e5e5e" stroke-width="5" fill="none"/><path d="M270 1521.5l2.53-.1.44 2.1-4.9 1.02-.65-3.15z" stroke="#5e5e5e" stroke-width=".05" fill="#5e5e5e"/><path d="M288.37 1610.58l-7.42-13.04 9.07-1.87z" stroke="#5e5e5e" stroke-width="5" fill="#5e5e5e"/><defs><path fill="#333" d="M212-179c-10-28-35-45-73-45-59 0-87 40-87 99 0 60 29 101 89 101 43 0 62-24 78-52l27 14C228-24 195 4 139 4 59 4 22-46 18-125c-6-104 99-153 187-111 19 9 31 26 39 46" id="G"/><path fill="#333" d="M30 0v-248h33v221h125V0H30" id="H"/><path fill="#333" d="M33 0v-248h34V0H33" id="I"/><path fill="#333" d="M30 0v-248h187v28H63v79h144v27H63v87h162V0H30" id="J"/><path fill="#333" d="M190 0L58-211 59 0H30v-248h39L202-35l-2-213h31V0h-41" id="K"/><path fill="#333" d="M127-220V0H93v-220H8v-28h204v28h-85" id="L"/><g id="a"><use transform="matrix(0.05,0,0,0.05,0,0)" xlink:href="#G"/><use transform="matrix(0.05,0,0,0.05,12.950000000000001,0)" xlink:href="#H"/><use transform="matrix(0.05,0,0,0.05,22.950000000000003,0)" xlink:href="#I"/><use transform="matrix(0.05,0,0,0.05,27.950000000000003,0)" xlink:href="#J"/><use transform="matrix(0.05,0,0,0.05,39.95,0)" xlink:href="#K"/><use transform="matrix(0.05,0,0,0.05,52.900000000000006,0)" xlink:href="#L"/></g><path fill="#333" d="M205 0l-28-72H64L36 0H1l101-248h38L239 0h-34zm-38-99l-47-123c-12 45-31 82-46 123h93" id="M"/><path fill="#333" d="M232-93c-1 65-40 97-104 97C67 4 28-28 28-90v-158h33c8 89-33 224 67 224 102 0 64-133 71-224h33v155" id="N"/><path fill="#333" d="M197 0v-115H63V0H30v-248h33v105h134v-105h34V0h-34" id="O"/><g id="b"><use transform="matrix(0.05,0,0,0.05,0,0)" xlink:href="#M"/><use transform="matrix(0.05,0,0,0.05,12,0)" xlink:href="#N"/><use transform="matrix(0.05,0,0,0.05,24.950000000000003,0)" xlink:href="#L"/><use transform="matrix(0.05,0,0,0.05,35.900000000000006,0)" xlink:href="#O"/></g><path fill="#333" d="M240 0l2-218c-23 76-54 145-80 218h-23L58-218 59 0H30v-248h44l77 211c21-75 51-140 76-211h43V0h-30" id="P"/><path fill="#333" d="M233-177c-1 41-23 64-60 70L243 0h-38l-65-103H63V0H30v-248c88 3 205-21 203 71zM63-129c60-2 137 13 137-47 0-61-80-42-137-45v92" id="Q"/><path fill="#333" d="M140-251c81 0 123 46 123 126C263-46 219 4 140 4 59 4 17-45 17-125s42-126 123-126zm0 227c63 0 89-41 89-101s-29-99-89-99c-61 0-89 39-89 99S79-25 140-24" id="R"/><path fill="#333" d="M185-189c-5-48-123-54-124 2 14 75 158 14 163 119 3 78-121 87-175 55-17-10-28-26-33-46l33-7c5 56 141 63 141-1 0-78-155-14-162-118-5-82 145-84 179-34 5 7 8 16 11 25" id="S"/><path fill="#333" d="M137 0h-34L2-248h35l83 218 83-218h36" id="T"/><g id="c"><use transform="matrix(0.05,0,0,0.05,0,0)" xlink:href="#P"/><use transform="matrix(0.05,0,0,0.05,14.950000000000001,0)" xlink:href="#I"/><use transform="matrix(0.05,0,0,0.05,19.950000000000003,0)" xlink:href="#G"/><use transform="matrix(0.05,0,0,0.05,32.900000000000006,0)" xlink:href="#Q"/><use transform="matrix(0.05,0,0,0.05,45.85000000000001,0)" xlink:href="#R"/><use transform="matrix(0.05,0,0,0.05,59.85,0)" xlink:href="#S"/><use transform="matrix(0.05,0,0,0.05,71.85000000000001,0)" xlink:href="#J"/><use transform="matrix(0.05,0,0,0.05,83.85000000000001,0)" xlink:href="#Q"/><use transform="matrix(0.05,0,0,0.05,96.45000000000002,0)" xlink:href="#T"/><use transform="matrix(0.05,0,0,0.05,108.45,0)" xlink:href="#I"/><use transform="matrix(0.05,0,0,0.05,113.45,0)" xlink:href="#G"/><use transform="matrix(0.05,0,0,0.05,126.40000000000003,0)" xlink:href="#J"/></g><path fill="#333" d="M30-248c87 1 191-15 191 75 0 78-77 80-158 76V0H30v-248zm33 125c57 0 124 11 124-50 0-59-68-47-124-48v98" id="U"/><g id="d"><use transform="matrix(0.05,0,0,0.05,0,0)" xlink:href="#M"/><use transform="matrix(0.05,0,0,0.05,12,0)" xlink:href="#U"/><use transform="matrix(0.05,0,0,0.05,24,0)" xlink:href="#I"/></g><path fill="#333" d="M143 4C61 4 22-44 18-125c-5-107 100-154 193-111 17 8 29 25 37 43l-32 9c-13-25-37-40-76-40-61 0-88 39-88 99 0 61 29 100 91 101 35 0 62-11 79-27v-45h-74v-28h105v86C228-13 192 4 143 4" id="V"/><path fill="#333" d="M266 0h-40l-56-210L115 0H75L2-248h35L96-30l15-64 43-154h32l59 218 59-218h35" id="W"/><path fill="#333" d="M137-103V0h-34v-103L8-248h37l75 118 75-118h37" id="X"/><g id="e"><use transform="matrix(0.05,0,0,0.05,0,0)" xlink:href="#V"/><use transform="matrix(0.05,0,0,0.05,14,0)" xlink:href="#M"/><use transform="matrix(0.05,0,0,0.05,24.65,0)" xlink:href="#L"/><use transform="matrix(0.05,0,0,0.05,35.6,0)" xlink:href="#J"/><use transform="matrix(0.05,0,0,0.05,47.6,0)" xlink:href="#W"/><use transform="matrix(0.05,0,0,0.05,63.900000000000006,0)" xlink:href="#M"/><use transform="matrix(0.05,0,0,0.05,74.55000000000001,0)" xlink:href="#X"/></g><g id="f"><use transform="matrix(0.05,0,0,0.05,0,0)" xlink:href="#R"/><use transform="matrix(0.05,0,0,0.05,14,0)" xlink:href="#L"/><use transform="matrix(0.05,0,0,0.05,24.950000000000003,0)" xlink:href="#O"/><use transform="matrix(0.05,0,0,0.05,37.900000000000006,0)" xlink:href="#J"/><use transform="matrix(0.05,0,0,0.05,49.900000000000006,0)" xlink:href="#Q"/></g><g id="g"><use transform="matrix(0.05,0,0,0.05,0,0)" xlink:href="#P"/><use transform="matrix(0.05,0,0,0.05,14.950000000000001,0)" xlink:href="#I"/><use transform="matrix(0.05,0,0,0.05,19.950000000000003,0)" xlink:href="#G"/><use transform="matrix(0.05,0,0,0.05,32.900000000000006,0)" xlink:href="#Q"/><use transform="matrix(0.05,0,0,0.05,45.85000000000001,0)" xlink:href="#R"/><use transform="matrix(0.05,0,0,0.05,59.85,0)" xlink:href="#S"/><use transform="matrix(0.05,0,0,0.05,71.85000000000001,0)" xlink:href="#J"/><use transform="matrix(0.05,0,0,0.05,83.85000000000001,0)" xlink:href="#Q"/><use transform="matrix(0.05,0,0,0.05,96.45000000000002,0)" xlink:href="#T"/><use transform="matrix(0.05,0,0,0.05,108.45,0)" xlink:href="#I"/><use transform="matrix(0.05,0,0,0.05,113.45,0)" xlink:href="#G"/><use transform="matrix(0.05,0,0,0.05,126.40000000000003,0)" xlink:href="#J"/><use transform="matrix(0.05,0,0,0.05,138.40000000000003,0)" xlink:href="#S"/></g><path fill="#333" d="M30-248c118-7 216 8 213 122C240-48 200 0 122 0H30v-248zM63-27c89 8 146-16 146-99s-60-101-146-95v194" id="Y"/><g id="h"><use transform="matrix(0.05,0,0,0.05,0,0)" xlink:href="#S"/><use transform="matrix(0.05,0,0,0.05,12,0)" xlink:href="#J"/><use transform="matrix(0.05,0,0,0.05,24,0)" xlink:href="#K"/><use transform="matrix(0.05,0,0,0.05,36.95,0)" xlink:href="#Y"/><use transform="matrix(0.05,0,0,0.05,49.900000000000006,0)" xlink:href="#S"/></g><g id="i"><use transform="matrix(0.05,0,0,0.05,0,0)" xlink:href="#H"/><use transform="matrix(0.05,0,0,0.05,10,0)" xlink:href="#R"/><use transform="matrix(0.05,0,0,0.05,24,0)" xlink:href="#V"/><use transform="matrix(0.05,0,0,0.05,38,0)" xlink:href="#I"/><use transform="matrix(0.05,0,0,0.05,43,0)" xlink:href="#K"/></g><path fill="#333" d="M140-251c81 0 123 46 123 126C263-53 228-8 163 1c7 30 30 48 69 40v23c-55 16-95-15-103-61C56-3 17-48 17-125c0-80 42-126 123-126zm0 227c63 0 89-41 89-101s-29-99-89-99c-61 0-89 39-89 99S79-25 140-24" id="Z"/><g id="j"><use transform="matrix(0.05,0,0,0.05,0,0)" xlink:href="#Q"/><use transform="matrix(0.05,0,0,0.05,12.950000000000001,0)" xlink:href="#J"/><use transform="matrix(0.05,0,0,0.05,24.950000000000003,0)" xlink:href="#Z"/><use transform="matrix(0.05,0,0,0.05,38.95,0)" xlink:href="#N"/><use transform="matrix(0.05,0,0,0.05,51.900000000000006,0)" xlink:href="#J"/><use transform="matrix(0.05,0,0,0.05,63.900000000000006,0)" xlink:href="#S"/><use transform="matrix(0.05,0,0,0.05,75.9,0)" xlink:href="#L"/></g><g id="k"><use transform="matrix(0.05,0,0,0.05,0,0)" xlink:href="#V"/><use transform="matrix(0.05,0,0,0.05,14,0)" xlink:href="#J"/><use transform="matrix(0.05,0,0,0.05,26,0)" xlink:href="#K"/><use transform="matrix(0.05,0,0,0.05,38.95,0)" xlink:href="#J"/><use transform="matrix(0.05,0,0,0.05,50.95,0)" xlink:href="#Q"/><use transform="matrix(0.05,0,0,0.05,63.900000000000006,0)" xlink:href="#M"/><use transform="matrix(0.05,0,0,0.05,74.55000000000001,0)" xlink:href="#L"/><use transform="matrix(0.05,0,0,0.05,85.50000000000001,0)" xlink:href="#J"/><use transform="matrix(0.05,0,0,0.05,97.50000000000001,0)" xlink:href="#S"/></g><path fill="#333" d="M153-248C145-148 188 4 80 4 36 3 13-21 6-62l32-5c4 25 16 42 43 43 27 0 39-20 39-49v-147H72v-28h81" id="aa"/><g id="l"><use transform="matrix(0.05,0,0,0.05,0,0)" xlink:href="#aa"/><use transform="matrix(0.05,0,0,0.05,9,0)" xlink:href="#W"/><use transform="matrix(0.05,0,0,0.05,25.950000000000003,0)" xlink:href="#L"/></g><g id="m"><use transform="matrix(0.05,0,0,0.05,0,0)" xlink:href="#W"/><use transform="matrix(0.05,0,0,0.05,16.95,0)" xlink:href="#I"/><use transform="matrix(0.05,0,0,0.05,21.95,0)" xlink:href="#L"/><use transform="matrix(0.05,0,0,0.05,32.9,0)" xlink:href="#O"/></g><g id="n"><use transform="matrix(0.05,0,0,0.05,0,0)" xlink:href="#N"/><use transform="matrix(0.05,0,0,0.05,12.950000000000001,0)" xlink:href="#S"/><use transform="matrix(0.05,0,0,0.05,24.950000000000003,0)" xlink:href="#J"/><use transform="matrix(0.05,0,0,0.05,36.95,0)" xlink:href="#Q"/></g><path fill="#333" d="M63-220v92h138v28H63V0H30v-248h175v28H63" id="ab"/><g id="o"><use transform="matrix(0.05,0,0,0.05,0,0)" xlink:href="#I"/><use transform="matrix(0.05,0,0,0.05,5,0)" xlink:href="#K"/><use transform="matrix(0.05,0,0,0.05,17.950000000000003,0)" xlink:href="#ab"/><use transform="matrix(0.05,0,0,0.05,28.900000000000006,0)" xlink:href="#R"/><use transform="matrix(0.05,0,0,0.05,42.900000000000006,0)" xlink:href="#Q"/><use transform="matrix(0.05,0,0,0.05,55.85,0)" xlink:href="#P"/><use transform="matrix(0.05,0,0,0.05,70.80000000000001,0)" xlink:href="#M"/><use transform="matrix(0.05,0,0,0.05,81.45000000000002,0)" xlink:href="#L"/><use transform="matrix(0.05,0,0,0.05,92.40000000000002,0)" xlink:href="#I"/><use transform="matrix(0.05,0,0,0.05,97.40000000000002,0)" xlink:href="#R"/><use transform="matrix(0.05,0,0,0.05,111.40000000000003,0)" xlink:href="#K"/></g><path fill="#333" d="M160-131c35 5 61 23 61 61C221 17 115-2 30 0v-248c76 3 177-17 177 60 0 33-19 50-47 57zm-97-11c50-1 110 9 110-42 0-47-63-36-110-37v79zm0 115c55-2 124 14 124-45 0-56-70-42-124-44v89" id="ac"/><path fill="#333" d="M194 0L95-120 63-95V0H30v-248h33v124l119-124h40L117-140 236 0h-42" id="ad"/><g id="p"><use transform="matrix(0.05,0,0,0.05,0,0)" xlink:href="#ac"/><use transform="matrix(0.05,0,0,0.05,12,0)" xlink:href="#M"/><use transform="matrix(0.05,0,0,0.05,24,0)" xlink:href="#G"/><use transform="matrix(0.05,0,0,0.05,36.95,0)" xlink:href="#ad"/></g><g id="q"><use transform="matrix(0.05,0,0,0.05,0,0)" xlink:href="#L"/><use transform="matrix(0.05,0,0,0.05,10.950000000000001,0)" xlink:href="#O"/><use transform="matrix(0.05,0,0,0.05,23.900000000000002,0)" xlink:href="#J"/></g><g id="r"><use transform="matrix(0.05,0,0,0.05,0,0)" xlink:href="#I"/><use transform="matrix(0.05,0,0,0.05,5,0)" xlink:href="#K"/></g><g id="s"><use transform="matrix(0.05,0,0,0.05,0,0)" xlink:href="#Q"/><use transform="matrix(0.05,0,0,0.05,12.950000000000001,0)" xlink:href="#J"/><use transform="matrix(0.05,0,0,0.05,24.950000000000003,0)" xlink:href="#S"/><use transform="matrix(0.05,0,0,0.05,36.95,0)" xlink:href="#U"/><use transform="matrix(0.05,0,0,0.05,48.95,0)" xlink:href="#R"/><use transform="matrix(0.05,0,0,0.05,62.95,0)" xlink:href="#K"/><use transform="matrix(0.05,0,0,0.05,75.9,0)" xlink:href="#S"/><use transform="matrix(0.05,0,0,0.05,87.9,0)" xlink:href="#J"/></g><g id="t"><use transform="matrix(0.05,0,0,0.05,0,0)" xlink:href="#O"/><use transform="matrix(0.05,0,0,0.05,12.950000000000001,0)" xlink:href="#J"/><use transform="matrix(0.05,0,0,0.05,24.950000000000003,0)" xlink:href="#M"/><use transform="matrix(0.05,0,0,0.05,36.95,0)" xlink:href="#Y"/><use transform="matrix(0.05,0,0,0.05,49.900000000000006,0)" xlink:href="#J"/><use transform="matrix(0.05,0,0,0.05,61.900000000000006,0)" xlink:href="#Q"/></g><g id="u"><use transform="matrix(0.05,0,0,0.05,0,0)" xlink:href="#L"/><use transform="matrix(0.05,0,0,0.05,10.600000000000001,0)" xlink:href="#R"/></g><g id="v"><use transform="matrix(0.05,0,0,0.05,0,0)" xlink:href="#L"/><use transform="matrix(0.05,0,0,0.05,10.950000000000001,0)" xlink:href="#O"/><use transform="matrix(0.05,0,0,0.05,23.900000000000002,0)" xlink:href="#J"/></g><g id="w"><use transform="matrix(0.05,0,0,0.05,0,0)" xlink:href="#M"/><use transform="matrix(0.05,0,0,0.05,12,0)" xlink:href="#U"/><use transform="matrix(0.05,0,0,0.05,24,0)" xlink:href="#I"/></g><g id="x"><use transform="matrix(0.05,0,0,0.05,0,0)" xlink:href="#T"/><use transform="matrix(0.05,0,0,0.05,12,0)" xlink:href="#J"/><use transform="matrix(0.05,0,0,0.05,24,0)" xlink:href="#Q"/><use transform="matrix(0.05,0,0,0.05,36.95,0)" xlink:href="#I"/><use transform="matrix(0.05,0,0,0.05,41.95,0)" xlink:href="#ab"/><use transform="matrix(0.05,0,0,0.05,52.900000000000006,0)" xlink:href="#I"/><use transform="matrix(0.05,0,0,0.05,57.900000000000006,0)" xlink:href="#J"/><use transform="matrix(0.05,0,0,0.05,69.9,0)" xlink:href="#S"/></g><g id="y"><use transform="matrix(0.05,0,0,0.05,0,0)" xlink:href="#aa"/><use transform="matrix(0.05,0,0,0.05,9,0)" xlink:href="#W"/><use transform="matrix(0.05,0,0,0.05,25.950000000000003,0)" xlink:href="#L"/></g><g id="z"><use transform="matrix(0.05,0,0,0.05,0,0)" xlink:href="#S"/><use transform="matrix(0.05,0,0,0.05,12,0)" xlink:href="#J"/><use transform="matrix(0.05,0,0,0.05,24,0)" xlink:href="#L"/><use transform="matrix(0.05,0,0,0.05,34.95,0)" xlink:href="#S"/></g><g id="A"><use transform="matrix(0.05,0,0,0.05,0,0)" xlink:href="#M"/><use transform="matrix(0.05,0,0,0.05,12,0)" xlink:href="#S"/></g><g id="B"><use transform="matrix(0.05,0,0,0.05,0,0)" xlink:href="#M"/><use transform="matrix(0.05,0,0,0.05,12,0)" xlink:href="#N"/><use transform="matrix(0.05,0,0,0.05,24.950000000000003,0)" xlink:href="#L"/><use transform="matrix(0.05,0,0,0.05,35.900000000000006,0)" xlink:href="#O"/><use transform="matrix(0.05,0,0,0.05,48.85000000000001,0)" xlink:href="#J"/><use transform="matrix(0.05,0,0,0.05,60.85,0)" xlink:href="#K"/><use transform="matrix(0.05,0,0,0.05,73.80000000000001,0)" xlink:href="#L"/><use transform="matrix(0.05,0,0,0.05,84.75000000000001,0)" xlink:href="#I"/><use transform="matrix(0.05,0,0,0.05,89.75000000000001,0)" xlink:href="#G"/><use transform="matrix(0.05,0,0,0.05,102.7,0)" xlink:href="#M"/><use transform="matrix(0.05,0,0,0.05,113.35000000000002,0)" xlink:href="#L"/><use transform="matrix(0.05,0,0,0.05,124.30000000000003,0)" xlink:href="#J"/><use transform="matrix(0.05,0,0,0.05,136.3,0)" xlink:href="#Y"/></g><g id="C"><use transform="matrix(0.05,0,0,0.05,0,0)" xlink:href="#O"/><use transform="matrix(0.05,0,0,0.05,12.950000000000001,0)" xlink:href="#M"/><use transform="matrix(0.05,0,0,0.05,24.950000000000003,0)" xlink:href="#K"/><use transform="matrix(0.05,0,0,0.05,37.900000000000006,0)" xlink:href="#Y"/><use transform="matrix(0.05,0,0,0.05,50.85000000000001,0)" xlink:href="#H"/><use transform="matrix(0.05,0,0,0.05,60.85,0)" xlink:href="#J"/><use transform="matrix(0.05,0,0,0.05,72.85000000000001,0)" xlink:href="#S"/></g><g id="D"><use transform="matrix(0.05,0,0,0.05,0,0)" xlink:href="#N"/><use transform="matrix(0.05,0,0,0.05,12.950000000000001,0)" xlink:href="#S"/><use transform="matrix(0.05,0,0,0.05,24.950000000000003,0)" xlink:href="#J"/><use transform="matrix(0.05,0,0,0.05,36.95,0)" xlink:href="#Q"/></g><path fill="#333" d="M209 0H11v-25l151-195H24v-28h176v25L50-27h159V0" id="ae"/><g id="E"><use transform="matrix(0.05,0,0,0.05,0,0)" xlink:href="#M"/><use transform="matrix(0.05,0,0,0.05,12,0)" xlink:href="#N"/><use transform="matrix(0.05,0,0,0.05,24.950000000000003,0)" xlink:href="#L"/><use transform="matrix(0.05,0,0,0.05,35.900000000000006,0)" xlink:href="#O"/><use transform="matrix(0.05,0,0,0.05,48.85000000000001,0)" xlink:href="#R"/><use transform="matrix(0.05,0,0,0.05,62.85,0)" xlink:href="#Q"/><use transform="matrix(0.05,0,0,0.05,75.80000000000001,0)" xlink:href="#I"/><use transform="matrix(0.05,0,0,0.05,80.80000000000001,0)" xlink:href="#ae"/><use transform="matrix(0.05,0,0,0.05,91.75000000000001,0)" xlink:href="#M"/><use transform="matrix(0.05,0,0,0.05,102.40000000000003,0)" xlink:href="#L"/><use transform="matrix(0.05,0,0,0.05,113.35000000000002,0)" xlink:href="#I"/><use transform="matrix(0.05,0,0,0.05,118.35000000000002,0)" xlink:href="#R"/><use transform="matrix(0.05,0,0,0.05,132.35000000000002,0)" xlink:href="#K"/></g><g id="F"><use transform="matrix(0.05,0,0,0.05,0,0)" xlink:href="#I"/><use transform="matrix(0.05,0,0,0.05,5,0)" xlink:href="#K"/><use transform="matrix(0.05,0,0,0.05,17.950000000000003,0)" xlink:href="#Y"/><use transform="matrix(0.05,0,0,0.05,30.900000000000006,0)" xlink:href="#I"/><use transform="matrix(0.05,0,0,0.05,35.900000000000006,0)" xlink:href="#T"/><use transform="matrix(0.05,0,0,0.05,47.900000000000006,0)" xlink:href="#I"/><use transform="matrix(0.05,0,0,0.05,52.900000000000006,0)" xlink:href="#Y"/><use transform="matrix(0.05,0,0,0.05,65.85000000000001,0)" xlink:href="#N"/><use transform="matrix(0.05,0,0,0.05,78.80000000000001,0)" xlink:href="#M"/><use transform="matrix(0.05,0,0,0.05,90.80000000000001,0)" xlink:href="#H"/><use transform="matrix(0.05,0,0,0.05,100.80000000000001,0)" xlink:href="#H"/><use transform="matrix(0.05,0,0,0.05,109.45,0)" xlink:href="#X"/></g></defs></g></svg>